<?xml version="1.0" encoding="UTF-8"?>
<svg width="16px" height="16px" viewBox="0 0 16 16" version="1.1" xmlns="http://www.w3.org/2000/svg" xmlns:xlink="http://www.w3.org/1999/xlink">    
    <g id="UI" stroke="none" stroke-width="1" fill="none" fill-rule="evenodd">
        <g id="homepage-new-copy-7" transform="translate(-1422.000000, -55.000000)">
            <g id="ic_phone_black_24px" transform="translate(1420.000000, 53.000000)">
                <polygon id="Shape" points="0 0 20 0 20 20 0 20"></polygon>
                <path d="M5.51666667,8.99166667 C6.71666667,11.35 8.65,13.275 11.0083333,14.4833333 L12.8416667,12.65 C13.0666667,12.425 13.4,12.35 13.6916667,12.45 C14.625,12.7583333 15.6333333,12.925 16.6666667,12.925 C17.125,12.925 17.5,13.3 17.5,13.7583333 L17.5,16.6666667 C17.5,17.125 17.125,17.5 16.6666667,17.5 C8.84166667,17.5 2.5,11.1583333 2.5,3.33333333 C2.5,2.875 2.875,2.5 3.33333333,2.5 L6.25,2.5 C6.70833333,2.5 7.08333333,2.875 7.08333333,3.33333333 C7.08333333,4.375 7.25,5.375 7.55833333,6.30833333 C7.65,6.6 7.58333333,6.925 7.35,7.15833333 L5.51666667,8.99166667 Z" id="Shape" class="colorable" fill-rule="nonzero"></path>
            </g>
        </g>
    </g>
</svg>