<?xml version="1.0" encoding="UTF-8"?>
<svg width="25px" height="16px" viewBox="0 0 25 16" version="1.1" xmlns="http://www.w3.org/2000/svg" xmlns:xlink="http://www.w3.org/1999/xlink">    
    <g id="UI" stroke="none" stroke-width="1" fill="none" fill-rule="evenodd">
        <g id="homepage-new-copy-7" transform="translate(-780.000000, -470.000000)" fill-rule="nonzero" class="colorable">
            <g id="sipka_leva" transform="translate(780.000000, 470.000000)">
                <path d="M23.8583541,6.71359102 L3.68553616,6.71359102 L8.49906484,1.89975062 C8.9207606,1.47830424 8.9207606,0.794638404 8.49906484,0.373254364 C8.07736908,-0.0484413965 7.39370324,-0.0484413965 6.97263092,0.373254364 L0.31627182,7.02973815 C-0.10542394,7.45118454 -0.10542394,8.13491272 0.31627182,8.55623441 L6.97263092,15.2130299 C7.18341646,15.4239401 7.45966334,15.5292394 7.73584788,15.5292394 C8.01203242,15.5292394 8.2882793,15.4239401 8.49906484,15.2130299 C8.9207606,14.7915835 8.9207606,14.1079177 8.49906484,13.686596 L3.68553616,8.87250623 L23.8583541,8.87250623 C24.4544888,8.87250623 24.9379052,8.38915212 24.9379052,7.79301746 C24.9379052,7.19688279 24.4545511,6.71359102 23.8583541,6.71359102 Z" id="Shape"></path>
            </g>
        </g>
    </g>
</svg>