<?xml version="1.0" encoding="UTF-8"?>
<svg width="863px" height="1128px" viewBox="0 0 863 1128" version="1.1" xmlns="http://www.w3.org/2000/svg" xmlns:xlink="http://www.w3.org/1999/xlink">
    <!-- Generator: sketchtool 47.1 (45422) - http://www.bohemiancoding.com/sketch -->
    <title>FA1402DA-34D9-4CF1-A1FC-D362C56E179C</title>
    <desc>Created with sketchtool.</desc>
    <defs></defs>
    <g id="UI" stroke="none" stroke-width="1" fill="none" fill-rule="evenodd" fill-opacity="0.04">
        <g id="homepage-new-copy-7" transform="translate(0.000000, -999.000000)" fill="#000000">
            <path d="M2.42914153,1441.29426 L2.42914153,1440.83868 L2.42914153,1311.62292 C2.42914153,1310.93955 2.40384005,1310.23931 2.41227387,1309.55594 L2.45444302,1305.7257 L6.28340118,1305.7257 L7.40510038,1305.7257 L696.516364,1305.71726 C730.336017,1305.71726 762.468903,1275.85995 762.283359,1241.49747 L761.794197,1155.25801 C761.574918,1119.23351 730.243244,1092 695.150084,1092 L-76.2669127,1092 C-174.639089,1092 -235,1161.92297 -235,1257.98269 L-235,1852.64009 C-235,1940.84528 -174.824633,2012 -84.0344688,2012 L699.232057,2012 C732.958937,2012 765.201464,1982.05832 764.999052,1947.78021 L764.518324,1861.54919 C764.299044,1825.51625 732.958937,1798.30805 697.857343,1798.30805 L8.15571112,1798.30805 C7.59907844,1798.30805 6.85690152,1798.33336 6.30026884,1798.33336 L2.42914153,1798.33336 L2.42914153,1664.47744 C2.42914153,1663.80251 2.43757536,1663.11914 2.50504599,1662.43577 L2.79179616,1659.1961 L6.03038632,1658.92612 C6.54484987,1658.8755 7.07618107,1658.85863 7.59907844,1658.85863 L555.61239,1658.85863 C588.833241,1658.85863 621.556496,1628.39388 621.379385,1594.6304 L620.890223,1508.41626 C620.670944,1472.38332 589.347705,1445.15824 554.237676,1445.15824 L7.42196804,1445.15824 L6.29183501,1445.15824 L2.42914153,1445.15824 L2.42914153,1441.29426 Z" id="ecko-copy" transform="translate(265.000000, 1552.000000) rotate(18.000000) translate(-265.000000, -1552.000000) "></path>
        </g>
    </g>
</svg>