<?xml version="1.0" encoding="UTF-8"?>
<svg width="73px" height="73px" viewBox="0 0 73 73" version="1.1" xmlns="http://www.w3.org/2000/svg" xmlns:xlink="http://www.w3.org/1999/xlink">
    <!-- Generator: sketchtool 47.1 (45422) - http://www.bohemiancoding.com/sketch -->
    <title>5CFA7DBD-DE11-4177-9C4C-CC47AA4429A8</title>
    <desc>Created with sketchtool.</desc>
    <defs></defs>
    <g id="UI" stroke="none" stroke-width="1" fill="none" fill-rule="evenodd">
        <g id="homepage-new-copy-7" transform="translate(-554.000000, -3844.000000)" fill-rule="nonzero" fill="#838997">
            <g id="003-clock-1-copy-2" transform="translate(554.000000, 3844.000000)">
                <path d="M36.5,0 C16.3739,0 0,16.3739 0,36.5 C0,56.6261 16.3739,73 36.5,73 C56.6261,73 73,56.6261 73,36.5 C73,16.3739 56.6261,0 36.5,0 Z M36.5,70.5666667 C17.7158833,70.5666667 2.43333333,55.2841167 2.43333333,36.5 C2.43333333,17.7158833 17.7158833,2.43333333 36.5,2.43333333 C55.2841167,2.43333333 70.5666667,17.7158833 70.5666667,36.5 C70.5666667,55.2841167 55.2841167,70.5666667 36.5,70.5666667 Z" id="Shape"></path>
                <path d="M37.7166667,31.6588833 L37.7166667,19.31945 C37.7166667,18.6466333 37.1716,18.1027833 36.5,18.1027833 C35.8284,18.1027833 35.2833333,18.6466333 35.2833333,19.31945 L35.2833333,31.6588833 C33.5812167,32.10175 32.2489667,33.434 31.8061,35.1361167 L23.1166667,35.1361167 C22.4450667,35.1361167 21.9,35.6799667 21.9,36.3527833 C21.9,37.0256 22.4450667,37.56945 23.1166667,37.56945 L31.8061,37.56945 C32.34995,39.6621167 34.2394333,41.21945 36.5,41.21945 C39.1839667,41.21945 41.3666667,39.03675 41.3666667,36.3527833 C41.3666667,34.091 39.8093333,32.2027333 37.7166667,31.6588833 Z M36.5,38.7861167 C35.1580167,38.7861167 34.0666667,37.6947667 34.0666667,36.3527833 C34.0666667,35.0108 35.1580167,33.91945 36.5,33.91945 C37.8419833,33.91945 38.9333333,35.0108 38.9333333,36.3527833 C38.9333333,37.6947667 37.8419833,38.7861167 36.5,38.7861167 Z" id="Shape"></path>
                <path d="M36.5,12.01945 C37.1716,12.01945 37.7166667,11.4756 37.7166667,10.8027833 L37.7166667,9.58611667 C37.7166667,8.9133 37.1716,8.36945 36.5,8.36945 C35.8284,8.36945 35.2833333,8.9133 35.2833333,9.58611667 L35.2833333,10.8027833 C35.2833333,11.4756 35.8284,12.01945 36.5,12.01945 Z" id="Shape"></path>
                <path d="M36.5,60.6861167 C35.8284,60.6861167 35.2833333,61.2299667 35.2833333,61.9027833 L35.2833333,63.11945 C35.2833333,63.7922667 35.8284,64.3361167 36.5,64.3361167 C37.1716,64.3361167 37.7166667,63.7922667 37.7166667,63.11945 L37.7166667,61.9027833 C37.7166667,61.2299667 37.1716,60.6861167 36.5,60.6861167 Z" id="Shape"></path>
                <path d="M63.2666667,35.1361167 L62.05,35.1361167 C61.3784,35.1361167 60.8333333,35.6799667 60.8333333,36.3527833 C60.8333333,37.0256 61.3784,37.56945 62.05,37.56945 L63.2666667,37.56945 C63.9382667,37.56945 64.4833333,37.0256 64.4833333,36.3527833 C64.4833333,35.6799667 63.9382667,35.1361167 63.2666667,35.1361167 Z" id="Shape"></path>
                <path d="M10.95,35.1361167 L9.73333333,35.1361167 C9.06173333,35.1361167 8.51666667,35.6799667 8.51666667,36.3527833 C8.51666667,37.0256 9.06173333,37.56945 9.73333333,37.56945 L10.95,37.56945 C11.6216,37.56945 12.1666667,37.0256 12.1666667,36.3527833 C12.1666667,35.6799667 11.6216,35.1361167 10.95,35.1361167 Z" id="Shape"></path>
                <path d="M54.5662833,16.5649167 L53.7061,17.4251 C53.2303833,17.9008167 53.2303833,18.66975 53.7061,19.1454667 C53.94335,19.3827167 54.2548167,19.50195 54.5662833,19.50195 C54.87775,19.50195 55.1892167,19.3827167 55.4264667,19.1454667 L56.28665,18.2852833 C56.7623667,17.8095667 56.7623667,17.0406333 56.28665,16.5649167 C55.8109333,16.0892 55.042,16.0904167 54.5662833,16.5649167 Z" id="Shape"></path>
                <path d="M17.5735333,53.5588833 L16.71335,54.4190667 C16.2376333,54.8947833 16.2376333,55.6637167 16.71335,56.1394333 C16.9506,56.3766833 17.2620667,56.4959167 17.5735333,56.4959167 C17.885,56.4959167 18.1964667,56.3766833 18.4337167,56.1394333 L19.2939,55.27925 C19.7696167,54.8035333 19.7696167,54.0346 19.2939,53.5588833 C18.8181833,53.0831667 18.0480333,53.0843833 17.5735333,53.5588833 Z" id="Shape"></path>
                <path d="M55.4264667,53.5588833 C54.95075,53.0831667 54.1818167,53.0831667 53.7061,53.5588833 C53.2303833,54.0346 53.2303833,54.8035333 53.7061,55.27925 L54.5662833,56.1394333 C54.8035333,56.3766833 55.115,56.4959167 55.4264667,56.4959167 C55.7379333,56.4959167 56.0494,56.3766833 56.28665,56.1394333 C56.7623667,55.6637167 56.7623667,54.8947833 56.28665,54.4190667 L55.4264667,53.5588833 Z" id="Shape"></path>
                <path d="M18.4337167,16.5649167 C17.958,16.0892 17.1890667,16.0892 16.71335,16.5649167 C16.2376333,17.0406333 16.2376333,17.8095667 16.71335,18.2852833 L17.5735333,19.1454667 C17.8107833,19.3827167 18.12225,19.50195 18.4337167,19.50195 C18.7451833,19.50195 19.05665,19.3827167 19.2939,19.1454667 C19.7696167,18.66975 19.7696167,17.9008167 19.2939,17.4251 L18.4337167,16.5649167 Z" id="Shape"></path>
            </g>
        </g>
    </g>
</svg>