<?xml version="1.0" encoding="UTF-8"?>
<svg width="18px" height="18px" viewBox="0 0 18 18" version="1.1" xmlns="http://www.w3.org/2000/svg" xmlns:xlink="http://www.w3.org/1999/xlink">    
    <g id="UI" stroke="none" stroke-width="1" fill="none" fill-rule="evenodd">
        <g id="homepage-new-copy-7" transform="translate(-1500.000000, -54.000000)" class="colorable">
            <g id="Facebook" transform="translate(1500.000000, 54.000000)">
                <path d="M0,9 C0,4.02943701 4.02943701,0 9,0 C13.970563,0 18,4.02943701 18,9 C18,13.970563 13.970563,18 9,18 C4.02943701,18 0,13.970563 0,9 Z M9.63808316,13.9918038 L9.63808316,9.09532861 L10.9897245,9.09532861 L11.1688461,7.40797615 L9.63808316,7.40797615 L9.64037959,6.56344 C9.64037959,6.12335249 9.68219378,5.88754355 10.3142865,5.88754355 L11.1592776,5.88754355 L11.1592776,4.2 L9.80744498,4.2 C8.18367656,4.2 7.61215217,5.01854748 7.61215217,6.39508694 L7.61215217,7.40816724 L6.6,7.40816724 L6.6,9.0955197 L7.61215217,9.0955197 L7.61215217,13.9918038 L9.63808316,13.9918038 Z" id="Combined-Shape"></path>
            </g>
        </g>
    </g>
</svg>