<?xml version="1.0" encoding="UTF-8"?>
<svg width="156px" height="45px" viewBox="0 0 156 45" version="1.1" xmlns="http://www.w3.org/2000/svg" xmlns:xlink="http://www.w3.org/1999/xlink">    
    <defs>
        <polygon id="path-1" points="155.846749 11.3053303 155.846749 0.156524631 6.65024631e-05 0.156524631 6.65024631e-05 11.3053303"></polygon>
    </defs>
    <g id="UI" stroke="none" stroke-width="1" fill="none" fill-rule="evenodd">
        <g id="homepage-new-copy-7" transform="translate(-400.000000, -40.000000)">
            <g id="logo" transform="translate(400.000000, 40.000000)">
                <path d="M95.4644852,2.74218473 C94.4897808,1.0377266 93.245298,0.00516502463 91.2118744,0.00826847291 L89.9902241,0.0102635468 C87.9157906,0.0142536946 86.6012586,0.896963054 85.5828842,2.67346552 L74.4144606,21.6005099 C73.7055443,22.8006576 74.4638941,24.1730468 75.8670961,24.1730468 L78.7233768,24.1730468 C79.7131552,24.1730468 80.337835,23.7438842 80.8215296,22.8975296 L82.9551502,19.2042044 C83.1677365,18.8242537 83.316702,18.7353621 83.7525148,18.7353621 L97.141234,18.7353621 C97.57217,18.7353621 97.7581552,18.7695 97.9891404,19.1609778 L100.189707,22.890436 C100.671406,23.7336872 101.266603,24.1730468 102.259264,24.1730468 L105.243451,24.1730468 C106.622712,24.1730468 107.232318,22.6969138 106.573943,21.5814458 L95.4644852,2.74218473 Z M90.5047315,5.61132266 L94.8998793,13.4887611 L86.080766,13.4821108 L90.5047315,5.61132266 Z M22.9187217,9.17784975 L22.9187217,9.16587931 L22.9187217,5.7707069 C22.9187217,5.75275123 22.9180567,5.73435222 22.9182783,5.71639655 L22.9193867,5.61575616 L23.0200271,5.61575616 L23.0495099,5.61575616 L41.1621207,5.61553448 C42.0510369,5.61553448 42.8956182,4.83102709 42.8907414,3.92814532 L42.8778842,1.66218473 C42.8721207,0.715633005 42.0485985,6.65024631e-05 41.1262094,6.65024631e-05 L20.8502734,6.65024631e-05 C18.2646576,6.65024631e-05 16.6781305,1.83730788 16.6781305,4.36129803 L16.6781305,19.9860517 C16.6781305,22.3036626 18.2597808,24.1732685 20.6461108,24.1732685 L41.2335,24.1732685 C42.1199778,24.1732685 42.9674409,23.3865443 42.9621207,22.4858793 L42.9494852,20.2201404 C42.9437217,19.273367 42.1199778,18.5584655 41.197367,18.5584655 L23.0692389,18.5584655 C23.0546084,18.5584655 23.035101,18.5591305 23.0204704,18.5591305 L22.9187217,18.5591305 L22.9187217,15.0420369 C22.9187217,15.024303 22.9189433,15.0063473 22.9207167,14.9883916 L22.9282537,14.9032685 L23.0133768,14.8961749 C23.026899,14.8948448 23.0408645,14.8944015 23.0546084,14.8944015 L37.4585985,14.8944015 C38.3317759,14.8944015 39.1918744,14.0939335 39.1872192,13.2067906 L39.1743621,10.9414951 C39.1685985,9.99472167 38.345298,9.27937685 37.4224655,9.27937685 L23.0499532,9.27937685 L23.0202488,9.27937685 L22.9187217,9.27937685 L22.9187217,9.17784975 Z M53.059633,18.4611502 C53.058303,18.4474064 53.0576379,18.4332192 53.0576379,18.4194754 L53.0576379,1.68590394 C53.0576379,0.757751232 52.2999532,6.65024631e-05 51.3720222,6.65024631e-05 L48.5028842,6.65024631e-05 C47.5740665,6.65024631e-05 46.8168251,0.756864532 46.8168251,1.68590394 L46.8168251,19.8918399 C46.8168251,22.4100665 48.4104458,24.1901158 50.9754458,24.187899 L67.4924409,24.1730468 C68.7440172,24.1972094 69.7486478,23.6884655 70.3600271,22.5785394 L71.4384754,20.6220369 C71.9771453,19.6105345 71.400569,18.5427266 70.230569,18.5433916 L53.1882044,18.5529236 C53.1760123,18.5529236 53.1629335,18.5522586 53.150298,18.5509286 L53.0689433,18.5427266 L53.059633,18.4611502 Z M132.950594,17.7679729 L120.356135,2.14299754 C119.235791,0.755756158 118.135397,0.0158054187 116.305914,0.0158054187 L114.414805,0.0178004926 C112.078796,0.0200172414 110.468771,1.79142118 110.468771,4.08974631 L110.468771,22.4872094 C110.468771,23.4153621 111.226234,24.1730468 112.15483,24.1730468 L115.023303,24.1730468 C115.950791,24.1730468 116.709584,23.4149187 116.709584,22.4872094 L116.709584,6.53615025 L129.182564,22.1052635 C130.46052,23.6884655 131.4002,24.1730468 133.444042,24.1730468 L135.0002,24.1730468 C137.539485,24.1730468 139.168574,22.4603867 139.168574,19.9414951 L139.168796,2.00023892 C139.170569,0.802972906 138.337736,6.65024631e-05 137.148672,6.65024631e-05 L134.636431,6.65024631e-05 C133.708057,6.65024631e-05 132.950594,0.757307882 132.950594,1.68590394 L132.950594,17.7679729 Z" id="Fill-1" fill="#EB301A"></path>
                <g id="Group-5" transform="translate(0.000000, 33.507044)">
                    <mask id="mask-2" fill="white">
                        <use xlink:href="#path-1"></use>
                    </mask>
                    <g id="Clip-4"></g>
                    <path d="M97.1878744,0.156524631 L95.5106823,2.39189409 L94.2444754,2.39189409 L95.3346724,0.156524631 L97.1878744,0.156524631 Z M87.7518399,5.36300246 L87.7518399,11.0842094 L86.1471355,11.0842094 L86.1471355,3.24024384 L87.7518399,3.24024384 L87.7518399,3.87002217 C88.5059778,3.39031773 89.2013719,3.02987438 90.1179975,3.02987438 C90.8612734,3.02987438 91.569303,3.21585961 92.0725049,3.78024384 C92.6111749,4.38452956 92.7342044,5.24773153 92.7342044,6.03401232 L92.7342044,11.0842094 L91.1299433,11.0842094 L91.1299433,6.63741133 C91.1299433,6.31819951 91.1157562,5.99743596 91.0780714,5.68066256 C90.9787611,4.85403695 90.5921601,4.52019458 89.7737365,4.52019458 C89.437899,4.52019458 88.9949926,4.63258374 88.6944015,4.77755911 C88.3563473,4.94026847 88.0451158,5.12957882 87.7518399,5.36300246 L87.7518399,5.36300246 Z M94.5109286,11.0842094 L96.1154113,11.0842094 L96.1154113,3.24024384 L94.5109286,3.24024384 L94.5109286,11.0842094 Z M57.1396478,11.2943571 C56.6176034,11.2943571 56.0991059,11.2203177 55.6056576,11.0458596 C55.1450172,10.8833719 54.7360271,10.5896527 54.3908793,10.2433966 C54.0299926,9.88140148 53.7761749,9.44137685 53.6026034,8.96233744 C53.3964458,8.39329803 53.3270616,7.7741601 53.3270616,7.17164778 C53.3270616,6.57489901 53.4008793,5.96108128 53.6154606,5.40113054 C53.7945739,4.93450493 54.0441798,4.49957882 54.3882192,4.1344803 C54.7273818,3.77470197 55.1399187,3.51622906 55.5996724,3.33955419 C56.092899,3.15024384 56.6120616,3.06223892 57.1396478,3.06223892 C57.5774557,3.06223892 58.0352143,3.1311798 58.476569,3.24689409 C58.8848941,3.3544064 59.3422094,3.52753448 59.6066675,3.63571182 L59.6066675,5.26391379 L59.49317,5.26391379 C59.2745985,5.10408621 58.6789581,4.79462808 58.2238596,4.65718966 C57.4404606,4.42044089 56.6532931,4.30095813 55.9601158,4.78487438 C55.8202389,4.882633 55.6901158,5.00233744 55.570633,5.14553941 C55.1053374,5.70194335 54.9794261,6.46672167 54.9794261,7.17164778 C54.9794261,7.8659335 55.1051158,8.61696798 55.552899,9.1718202 C55.9528005,9.66726355 56.489032,9.91044089 57.1179236,9.91044089 C57.5278005,9.91044089 57.9219384,9.83019458 58.2974557,9.66549015 C58.6811749,9.49723892 59.1925788,9.1611798 59.4654606,8.94881527 L59.6066675,8.94881527 L59.6066675,10.6756626 C58.8715936,10.9984212 58.0358793,11.2943571 57.1396478,11.2943571 L57.1396478,11.2943571 Z M42.4288596,7.14016995 C42.4288596,6.45430788 42.3366429,5.602633 41.8995,5.04312562 C41.5288596,4.56829803 40.9686872,4.38209113 40.3759286,4.38209113 C39.7805099,4.38209113 39.2128005,4.55388916 38.8395,5.03049015 C38.4012488,5.58999754 38.3081453,6.44034236 38.3081453,7.12709113 C38.3081453,7.81871675 38.4092291,8.63292857 38.8406084,9.19975123 C39.2105837,9.68588424 39.7740813,9.89315025 40.3759286,9.89315025 C40.9702389,9.89315025 41.5275296,9.70184483 41.8970616,9.22546552 C42.3326527,8.66396305 42.4288596,7.82824877 42.4288596,7.14016995 L42.4288596,7.14016995 Z M44.0739089,7.14016995 C44.0739089,8.23480049 43.8415936,9.35869212 43.0788103,10.1848744 C42.3718892,10.9507611 41.4071601,11.2701946 40.3759286,11.2701946 C39.3296232,11.2701946 38.3269877,11.0017463 37.62317,10.2006133 C36.8885394,9.36356897 36.6628744,8.2179532 36.6628744,7.12709113 C36.6628744,6.02625369 36.9047217,4.91632759 37.6699433,4.0868202 C38.3790813,3.31871675 39.3402635,3.00549015 40.3759286,3.00549015 C41.4093768,3.00549015 42.4044754,3.31228818 43.1100665,4.08194335 C43.8697463,4.91012069 44.0739089,6.04465271 44.0739089,7.14016995 L44.0739089,7.14016995 Z M74.5992044,7.16455419 C74.5992044,6.47891379 74.5072094,5.62746059 74.0700665,5.06773153 C73.6994261,4.59290394 73.1392537,4.40691872 72.5464951,4.40691872 C71.951298,4.40691872 71.3835887,4.5782734 71.0100665,5.05509606 C70.5718153,5.61460345 70.4789335,6.4647266 70.4789335,7.15169704 C70.4789335,7.84354433 70.5795739,8.65753448 71.0111749,9.22435714 C71.3811502,9.71049015 71.9446478,9.91775616 72.5464951,9.91775616 C73.1408054,9.91775616 73.6980961,9.72645074 74.0676281,9.25007143 C74.5034409,8.68834729 74.5992044,7.85285468 74.5992044,7.16455419 L74.5992044,7.16455419 Z M76.244697,7.16455419 C76.244697,8.2594064 76.0123818,9.38307635 75.2493768,10.2094803 C74.542234,10.9755887 73.5779483,11.2945788 72.5464951,11.2945788 C71.5001897,11.2945788 70.4975542,11.0263522 69.7939581,10.2249975 C69.0591059,9.38839655 68.8334409,8.24278079 68.8334409,7.15169704 C68.8334409,6.05063793 69.0750665,4.9409335 69.8405099,4.11142611 C70.5496478,3.34310099 71.51083,3.02987438 72.5464951,3.02987438 C73.580165,3.02987438 74.5750419,3.33667241 75.280633,4.10632759 C76.0403128,4.93494828 76.244697,6.06925862 76.244697,7.16455419 L76.244697,7.16455419 Z M82.7916429,9.03637685 L82.7916429,4.83076108 C82.2753621,4.59600739 81.761298,4.47386453 81.1949187,4.47386453 C80.590633,4.47386453 79.9980961,4.69819951 79.6208054,5.17834729 C79.1814458,5.737633 79.0726034,6.52413547 79.0726034,7.21487438 C79.0726034,7.85329803 79.1495246,8.63115517 79.4966675,9.18445567 C79.7930468,9.65662315 80.3414704,9.80425862 80.8841305,9.80425862 C81.23083,9.80425862 81.5644507,9.72534236 81.8814458,9.58901232 C82.209968,9.44802709 82.5136626,9.26071182 82.7916429,9.03637685 L82.7916429,9.03637685 Z M82.7916429,10.4610813 C82.5165443,10.6761059 82.2427759,10.8678547 81.9237857,11.0119433 C81.4921847,11.2063522 81.0472833,11.2945788 80.5760025,11.2945788 C80.1421847,11.2945788 79.6378744,11.2331749 79.2450665,11.046968 C78.8560271,10.8627562 78.5314951,10.5936429 78.2681453,10.2529286 C77.9744261,9.87342118 77.7766921,9.43051478 77.6445739,8.97164778 C77.4845246,8.41413547 77.4273325,7.82115517 77.4273325,7.24258374 C77.4273325,6.64694335 77.4960517,6.03046552 77.7033177,5.46918473 C78.044032,4.54613054 78.6645,3.757633 79.5571847,3.34731281 C79.9812488,3.15201724 80.5112734,3.02987438 80.9781207,3.02987438 C81.6274064,3.02987438 82.2097463,3.16576108 82.7916429,3.4550468 L82.7916429,0.647312808 L84.3959039,0.647312808 L84.3959039,11.0842094 L82.7916429,11.0842094 L82.7916429,10.4610813 Z M62.6755345,5.36300246 L62.6755345,11.0842094 L61.0710517,11.0842094 L61.0710517,0.647312808 L62.6755345,0.647312808 L62.6755345,3.90837192 C63.1337365,3.62507143 64.0895985,3.06312562 65.102431,3.02987438 C65.8452635,3.00549015 66.5295739,3.20366749 67.0325542,3.76783005 C67.5714458,4.37233744 67.6485887,5.24750985 67.6485887,6.03401232 L67.6485887,11.0842094 L66.0441059,11.0842094 L66.0441059,6.63741133 C66.0441059,6.13731281 66.0589581,5.46253448 65.8093522,5.01120443 C65.7184655,4.84694335 65.586569,4.72613054 65.4176527,4.64521921 C65.1152882,4.50002217 64.7969631,4.49824877 64.4573571,4.55278079 C63.8304606,4.65386453 62.9909778,5.10608128 62.6755345,5.36300246 L62.6755345,5.36300246 Z M46.8705591,5.28297783 L46.8705591,9.46310099 C47.4014704,9.70871675 47.9603128,9.86699261 48.5475296,9.86699261 C49.1369631,9.86699261 49.6514704,9.68344581 50.034968,9.22524384 C50.4894015,8.68236207 50.5802882,7.81494828 50.5802882,7.13462808 C50.5802882,6.49952956 50.5093522,5.7032734 50.1697463,5.14975123 C49.8851158,4.68578571 49.4371108,4.51531773 48.9061995,4.51531773 C48.1429729,4.51531773 47.2587118,4.96576108 46.8705591,5.28297783 L46.8705591,5.28297783 Z M46.8240074,10.7796281 L46.7568399,11.0904163 L45.2660764,11.0904163 L45.2660764,0.622706897 L46.8705591,0.622706897 L46.8705591,3.85494828 C47.4497956,3.44130296 48.3094507,3.02521921 49.216766,3.02521921 C50.1294015,3.02521921 50.8795493,3.37347044 51.4297463,4.10743596 C52.0506576,4.9365 52.2255591,6.01960345 52.2255591,7.03287931 C52.2255591,8.14413547 52.0497709,9.28731281 51.3279975,10.1580517 C50.6900172,10.9279286 49.8015443,11.2901453 48.8002389,11.2901453 C48.0928744,11.2901453 47.3819631,11.05783 46.8240074,10.7796281 L46.8240074,10.7796281 Z M4.77472167,8.92576108 L7.78196305,0.902682266 L9.54339163,0.902682266 L5.62462315,11.0842094 L3.92193842,11.0842094 L6.65024631e-05,0.902682266 L1.84927833,0.906672414 L4.77472167,8.92576108 Z M14.3836626,5.86420936 L14.3836626,5.72167241 C14.3836626,5.50332266 14.3612734,5.18743596 14.2570862,4.99280542 C13.964697,4.44704187 13.2105591,4.39073645 12.6492783,4.41268227 C11.8097956,4.44571182 10.904032,4.68113054 10.1804852,4.97329803 L10.0767414,4.97329803 L10.0767414,3.43265764 C11.3407315,3.08728818 12.7809532,2.88201724 14.0713227,3.16310099 C14.8165936,3.32558867 15.4805099,3.70487438 15.7695739,4.49049015 C15.9172094,4.89105665 15.9810517,5.34438177 15.9810517,5.76800246 L15.9810517,11.0842094 L14.3836626,11.0842094 L14.4009532,10.4785936 C13.9689089,10.7554655 13.4300172,11.037436 12.8773818,11.1946034 C12.2815197,11.3641847 11.5189581,11.3415739 10.9432685,11.1088153 C10.3205837,10.8567709 9.8541798,10.3974606 9.5912734,9.76856897 C9.2753867,9.01354433 9.3221601,8.03595813 9.75797291,7.33834729 C10.0290813,6.90386453 10.4489335,6.60815025 10.9106823,6.40553941 C11.4165443,6.18408621 11.9702882,6.0597266 12.5169384,5.99278079 C13.1221108,5.9185197 13.7711749,5.88482512 14.3836626,5.86420936 L14.3836626,5.86420936 Z M14.3836626,9.07273153 L14.3883177,7.18051478 C14.054697,7.19403695 13.649697,7.21265764 13.3029975,7.24635222 C12.9265936,7.28315025 12.5198202,7.3197266 12.1562734,7.42546552 C11.8541305,7.51347044 11.570165,7.65645074 11.3376281,7.87280542 C11.1126281,8.0820665 11.0066675,8.36780542 11.0066675,8.66773153 C11.0066675,8.995367 11.0498941,9.28753448 11.3103621,9.5644064 C11.588564,9.86056404 12.0254852,9.89425862 12.406101,9.87076108 C13.2486872,9.81888916 13.9837611,9.41322414 14.3836626,9.07273153 L14.3836626,9.07273153 Z M17.4786872,10.7073621 L17.4786872,8.99115517 L17.5704606,8.99115517 C17.8943276,9.16672167 18.7034409,9.53625369 19.4376281,9.7029532 C20.2620369,9.89049015 21.1908547,9.83484975 21.5898695,9.64177094 C22.1181207,9.3861798 22.1777512,8.67704187 21.7197709,8.34098276 C21.5018645,8.18115517 20.9991059,8.03906158 20.7415197,7.97677094 C20.2693522,7.8632734 19.7153867,7.73891379 19.2458793,7.60989901 C18.1809532,7.3179532 17.4221601,6.68285468 17.4221601,5.50443103 C17.4221601,4.77645074 17.7110025,4.18191872 18.2787118,3.72837192 C18.9120369,3.22250985 19.7827759,3.055367 20.5772586,3.055367 C21.0330222,3.055367 21.578564,3.10989901 22.0221355,3.21386453 C22.449303,3.3138399 22.9731207,3.51312562 23.2442291,3.62196798 L23.2442291,5.20760837 L23.160436,5.20760837 C22.9609286,5.07371675 22.4080714,4.78443103 21.7199926,4.6170665 C21.1066182,4.46787931 20.2753374,4.37544089 19.6666182,4.59955419 C19.3097217,4.73100739 19.0301897,4.9427069 19.0011502,5.29339655 C18.9450665,5.97083498 19.5728498,6.13354433 20.1547463,6.28339655 C20.6293522,6.40531773 21.2425049,6.53588424 21.7148941,6.66955419 C22.2216429,6.81253448 22.8354606,7.07832266 23.2027759,7.46935714 C23.8161502,8.122633 23.7660517,9.18356897 23.4437365,9.90268227 C23.1730714,10.5060813 22.5291059,10.9826823 21.7536872,11.1604655 C21.3823818,11.245367 20.9405837,11.2930271 20.489697,11.2974606 C20.1500911,11.300564 19.4504852,11.217436 19.1155345,11.1502685 C18.6010271,11.046968 17.6702143,10.7898251 17.4786872,10.7073621 L17.4786872,10.7073621 Z M20.4741798,1.36243596 L21.4233916,0.156524631 L22.7447956,0.156524631 L21.234968,2.39189409 L19.6987611,2.39189409 L18.1426034,0.156524631 L19.4788596,0.156524631 L20.4741798,1.36243596 Z M26.310436,7.53408621 C26.3295,8.18403695 26.4977512,8.8452931 26.9222586,9.2970665 C27.5830714,10.0006626 28.6859039,10.0525345 29.5741552,9.85413547 C30.1952882,9.71581034 31.1296478,9.26891379 31.4579483,9.06608128 L31.5867414,9.06608128 L31.5867414,10.6612537 C31.14317,10.8445788 30.7164458,10.9853424 30.2839581,11.0899729 C29.8767414,11.1886182 29.2908547,11.3049975 28.7537365,11.3049975 C27.6438103,11.3049975 26.5420862,11.0553916 25.7283177,10.2573621 C24.9152143,9.46044089 24.6520862,8.3177069 24.6520862,7.20622906 C24.6520862,6.08699261 24.9254113,5.00566256 25.6977266,4.16839655 C26.7096724,3.07110591 28.408367,2.74790394 29.7827512,3.24157389 C30.6042783,3.53640148 31.2032438,4.19632759 31.5013966,5.0220665 C31.7851404,5.80967734 31.7361502,6.70879064 31.7361502,7.53408621 L26.310436,7.53408621 Z M30.1618153,6.25191872 C30.1704606,5.78041626 30.0607315,5.26945567 29.7492783,4.89016995 C29.6027512,4.71194335 29.4200911,4.58337192 29.2070616,4.49581034 C28.7193768,4.29674631 28.0007069,4.29962808 27.5139089,4.50046552 C27.04817,4.69221429 26.6961502,5.05842118 26.4944261,5.52925862 C26.4064212,5.73519458 26.3541059,6.02913547 26.3246232,6.25191872 L30.1618153,6.25191872 Z M151.287628,5.36034236 C151.292283,5.42861823 151.297603,5.49689409 151.302037,5.56516995 C151.310904,5.6935197 151.312234,5.82297783 151.312234,5.95177094 L151.312234,11.0689138 L149.707751,11.0689138 L149.707751,6.55273153 C149.707751,6.07014532 149.735239,5.39847044 149.504475,4.95933251 C149.156224,4.29630296 148.167111,4.45147537 147.624229,4.74896305 C147.320978,4.91521921 147.022382,5.09366749 146.762357,5.32221429 L146.762357,11.0474113 L145.157874,11.0474113 L145.157874,3.20322414 L146.762357,3.20322414 L146.762357,3.86736207 C147.261791,3.50913547 148.147603,3.01457882 148.936544,3.01457882 C149.906815,3.01457882 150.601101,3.36726355 150.962431,4.13292857 C151.538342,3.62285468 152.570904,2.99684483 153.54849,2.99684483 C154.578613,2.99684483 155.333638,3.50869212 155.666372,4.49869212 C155.8078,4.91987438 155.846815,5.49201724 155.846815,5.93403695 L155.846815,11.0514015 L154.242554,11.0514015 L154.242554,6.29071182 C154.242554,5.56428325 154.272702,4.48716502 153.05482,4.48716502 C152.77152,4.48716502 152.452751,4.61085961 152.20381,4.73854433 C151.881938,4.90369212 151.558515,5.11982512 151.287628,5.36034236 L151.287628,5.36034236 Z M141.838736,10.4482241 C141.201421,10.9387906 140.330904,11.2945788 139.473687,11.2945788 C138.355337,11.2945788 137.4345,10.7337414 137.053219,9.63600739 C136.905362,9.21039163 136.85748,8.73955419 136.85748,8.29066256 L136.85748,3.24024384 L138.461963,3.24024384 L138.461963,7.68704187 C138.461963,8.01223892 138.468835,8.34874138 138.506741,8.67172167 C138.553736,9.07073645 138.699377,9.49856897 139.079328,9.68189409 C139.289697,9.78364286 139.58785,9.80425862 139.81817,9.80425862 C140.157776,9.80425862 140.605337,9.7011798 140.908589,9.55465271 C141.240658,9.39438177 141.553219,9.19731281 141.838736,8.96300246 L141.838736,3.24024384 L143.442998,3.24024384 L143.442998,11.0842094 L141.838736,11.0842094 L141.838736,10.4482241 Z M132.780879,5.63521921 L132.780879,11.0842094 L131.176397,11.0842094 L131.176397,3.24024384 L132.780879,3.24024384 L132.780879,4.20785468 C133.11184,3.9420665 133.477382,3.68204187 133.849574,3.50780542 C134.196938,3.34487438 134.608145,3.24024384 134.997628,3.24024384 C135.229722,3.24024384 135.462702,3.25664778 135.631397,3.30275616 L135.631397,4.92519458 L135.540732,4.92519458 C135.304426,4.83475123 134.998515,4.76935714 134.726963,4.78664778 C134.376052,4.8085936 134.130879,4.85869212 133.722776,5.03869212 C133.386495,5.18677094 132.871544,5.54012069 132.780879,5.63521921 L132.780879,5.63521921 Z M125.716766,4.5756133 L124.75381,4.5756133 L124.75381,3.24024384 L125.716766,3.24024384 L125.716766,1.1935197 L127.32147,1.1935197 L127.32147,3.24024384 L129.760116,3.24024384 L129.760116,4.5756133 L127.32147,4.5756133 L127.32147,8.03152463 C127.32147,8.32236207 127.322579,8.69145074 127.34253,8.98162315 C127.364475,9.29573645 127.409254,9.63556404 127.777677,9.81822414 C127.970978,9.91420936 128.173367,9.95167241 128.487924,9.9244064 C128.937259,9.88605665 129.305461,9.73886453 129.631766,9.59388916 L129.760116,9.59388916 L129.760116,11.0529532 C129.47083,11.1340862 129.180436,11.2005887 128.883392,11.244702 C128.642653,11.28017 128.39881,11.3038892 128.154968,11.3038892 C127.494599,11.3038892 126.849525,11.1456133 126.365608,10.6723374 C125.847333,10.166032 125.716766,9.39571182 125.716766,8.69987438 L125.716766,4.5756133 Z M118.947924,5.36300246 L118.947924,11.0842094 L117.343441,11.0842094 L117.343441,3.24024384 L118.947924,3.24024384 L118.947924,3.87002217 C119.702283,3.39031773 120.397456,3.02987438 121.314303,3.02987438 C122.057357,3.02987438 122.76583,3.21585961 123.268589,3.78024384 C123.807702,4.38452956 123.930732,5.24773153 123.930732,6.03401232 L123.930732,11.0842094 L122.326027,11.0842094 L122.326027,6.63741133 C122.326027,6.31819951 122.312283,5.99765764 122.274155,5.68066256 C122.175067,4.85381527 121.788466,4.52019458 120.970042,4.52019458 C120.634204,4.52019458 120.191076,4.63280542 119.890707,4.77755911 C119.552874,4.94026847 119.2412,5.12957882 118.947924,5.36300246 L118.947924,5.36300246 Z M105.35216,11.2943571 C104.830337,11.2943571 104.311397,11.2200961 103.81817,11.0458596 C103.357751,10.8833719 102.948096,10.589431 102.603392,10.2433966 C102.242727,9.88162315 101.988466,9.44137685 101.815116,8.96233744 C101.608958,8.3935197 101.539574,7.7741601 101.539574,7.17164778 C101.539574,6.57489901 101.613613,5.96085961 101.827973,5.40113054 C102.006865,4.9347266 102.256914,4.49957882 102.600732,4.1344803 C102.939672,3.77470197 103.352431,3.51600739 103.812406,3.33955419 C104.305411,3.15024384 104.824574,3.06223892 105.35216,3.06223892 C105.79019,3.06223892 106.247948,3.13140148 106.689081,3.24689409 C107.097406,3.35418473 107.554943,3.52753448 107.81918,3.63571182 L107.81918,5.26391379 L107.705682,5.26391379 C107.487111,5.10408621 106.89147,4.79462808 106.436594,4.65718966 C105.653195,4.42044089 104.865805,4.3011798 104.172628,4.78487438 C104.032973,4.88241133 103.902628,5.00255911 103.783145,5.14553941 C103.318293,5.70194335 103.191938,6.46672167 103.191938,7.17164778 C103.191938,7.8659335 103.317628,8.61696798 103.765411,9.1718202 C104.165313,9.66726355 104.701766,9.91044089 105.330436,9.91044089 C105.740313,9.91044089 106.134894,9.82997291 106.509968,9.66549015 C106.893687,9.49723892 107.405091,9.1611798 107.678195,8.94881527 L107.81918,8.94881527 L107.81918,10.6756626 C107.084328,10.9984212 106.248392,11.2943571 105.35216,11.2943571 L105.35216,11.2943571 Z M114.376323,6.25191872 C114.384746,5.78041626 114.275017,5.26945567 113.963786,4.89016995 C113.81748,4.71216502 113.634599,4.58337192 113.421347,4.49581034 C112.933663,4.29674631 112.214993,4.29962808 111.728416,4.50046552 C111.262899,4.69199261 110.910436,5.05842118 110.708933,5.52925862 C110.620929,5.73497291 110.568613,6.02913547 110.539131,6.25191872 L114.376323,6.25191872 Z M110.524722,7.53408621 C110.544007,8.18403695 110.712259,8.8452931 111.136766,9.2970665 C111.7978,10.0006626 112.900633,10.0523128 113.788884,9.85413547 C114.409574,9.71581034 115.343933,9.26891379 115.672456,9.06608128 L115.801249,9.06608128 L115.801249,10.6612537 C115.357677,10.8445788 114.930953,10.9853424 114.498466,11.0899729 C114.091027,11.1886182 113.505362,11.3049975 112.968466,11.3049975 C111.858539,11.3049975 110.756372,11.0553916 109.942603,10.2573621 C109.129722,9.46066256 108.866815,8.3177069 108.866815,7.20622906 C108.866815,6.08699261 109.139919,5.00588424 109.912234,4.16839655 C110.92418,3.07110591 112.623096,2.74790394 113.997259,3.24157389 C114.818564,3.53640148 115.417973,4.19632759 115.715904,5.0220665 C115.999648,5.80967734 115.950658,6.70879064 115.950658,7.53408621 L110.524722,7.53408621 Z" id="Fill-3" fill="#838997" mask="url(#mask-2)"></path>
                </g>
            </g>
        </g>
    </g>
</svg>