<?xml version="1.0" encoding="UTF-8"?>
<svg width="13px" height="15px" viewBox="0 0 13 15" version="1.1" xmlns="http://www.w3.org/2000/svg" xmlns:xlink="http://www.w3.org/1999/xlink">
    <!-- Generator: sketchtool 47.1 (45422) - http://www.bohemiancoding.com/sketch -->
    <title>993D56AA-78CD-4254-9572-31334AB1017A</title>
    <desc>Created with sketchtool.</desc>
    <defs></defs>
    <g id="UI" stroke="none" stroke-width="1" fill="none" fill-rule="evenodd">
        <g id="homepage-new-copy-7" transform="translate(-1507.000000, -5524.000000)">
            <g id="paticka" transform="translate(0.000000, 4895.000000)">
                <g id="Group" transform="translate(1450.000000, 629.000000)">
                    <g id="bpromo_logo_2016-01" transform="translate(57.000000, 0.000000)">
                        <path d="M6.9654375,7.1945625 C5.5888125,7.1945625 4.4690625,8.3145 4.4690625,9.6909375 C4.4690625,11.067375 5.589,12.1875 6.9654375,12.1875 C8.341875,12.1875 9.4618125,11.0675625 9.4618125,9.691125 C9.4618125,8.3146875 8.3420625,7.1945625 6.9654375,7.1945625 Z" id="Shape"></path>
                        <path d="M6.9654375,4.3820625 C6.0631875,4.3820625 5.2134375,4.6089375 4.4686875,5.0075625 L4.4686875,0.02175 L0.1561875,0.02175 L0.1561875,2.83425 L1.6561875,2.83425 L1.6561875,14.83425 L4.4686875,14.83425 L4.4686875,14.3745 C5.213625,14.773125 6.063375,15 6.9654375,15 C9.892875,15 12.2743125,12.618375 12.2743125,9.691125 C12.2743125,6.763875 9.8930625,4.3820625 6.9654375,4.3820625 Z M6.9654375,12.1875 C5.5888125,12.1875 4.4690625,11.0675625 4.4690625,9.691125 C4.4690625,8.3146875 5.589,7.19475 6.9654375,7.19475 C8.341875,7.19475 9.4618125,8.3146875 9.4618125,9.691125 C9.4618125,11.0675625 8.3420625,12.1875 6.9654375,12.1875 Z" id="Shape" fill="#000000" fill-rule="nonzero"></path>
                    </g>
                </g>
            </g>
        </g>
    </g>
</svg>