<?xml version="1.0" encoding="utf-8"?>
<!-- Generator: Adobe Illustrator 16.0.4, SVG Export Plug-In . SVG Version: 6.00 Build 0)  -->
<!DOCTYPE svg PUBLIC "-//W3C//DTD SVG 1.1//EN" "http://www.w3.org/Graphics/SVG/1.1/DTD/svg11.dtd">
<svg version="1.1" id="Vrstva_1" xmlns="http://www.w3.org/2000/svg" xmlns:xlink="http://www.w3.org/1999/xlink" x="0px" y="0px"
	 width="840px" height="533px" viewBox="0 0 840 533" enable-background="new 0 0 840 533" xml:space="preserve">
<g>
	<g>
		<g enable-background="new    ">
			<defs>
				<polygon id="SVGID_3_" enable-background="new    " points="715.701,451.289 730.014,432.979 770.963,449.523 756.648,467.833 
									"/>
			</defs>
			<clipPath id="SVGID_2_">
				<use xlink:href="#SVGID_3_"  overflow="visible"/>
			</clipPath>
			<g clip-path="url(#SVGID_2_)">
				<path fill="#616161" d="M742.713,438.11c-0.453-0.184-1.004-0.242-1.543-0.133l-17.09,3.462
					c-1.082,0.225-1.713,1.032-1.412,1.809l4.773,12.294c0.148,0.388,0.508,0.696,0.963,0.88s0.998,0.24,1.545,0.134
					c1.08-0.218,1.713-1.026,1.414-1.809l-3.459-8.893l33.131,13.385c0.979,0.396,2.219,0.146,2.77-0.562
					c0.553-0.706,0.205-1.596-0.773-1.992L729.9,443.301l12.365-2.5c1.078-0.219,1.711-1.027,1.414-1.81
					C743.523,438.602,743.168,438.294,742.713,438.11"/>
			</g>
		</g>
	</g>
	<g>
		<g enable-background="new    ">
			<defs>
				<polygon id="SVGID_5_" enable-background="new    " points="742.701,270.289 757.014,251.979 797.963,268.523 783.648,286.833 
									"/>
			</defs>
			<clipPath id="SVGID_4_">
				<use xlink:href="#SVGID_5_"  overflow="visible"/>
			</clipPath>
			<g clip-path="url(#SVGID_4_)">
				<path fill="#616161" d="M769.713,257.11c-0.453-0.184-1.004-0.242-1.543-0.133l-17.09,3.462
					c-1.082,0.225-1.713,1.032-1.412,1.809l4.773,12.294c0.148,0.388,0.508,0.696,0.963,0.88s0.998,0.24,1.545,0.134
					c1.08-0.218,1.713-1.026,1.414-1.809l-3.459-8.893l33.131,13.385c0.979,0.396,2.219,0.146,2.77-0.562
					c0.553-0.706,0.205-1.596-0.773-1.992L756.9,262.301l12.365-2.5c1.078-0.219,1.711-1.027,1.414-1.81
					C770.523,257.602,770.168,257.294,769.713,257.11"/>
			</g>
		</g>
	</g>
	<g>
		<g enable-background="new    ">
			<defs>
				<polygon id="SVGID_7_" enable-background="new    " points="357.223,455.702 380.295,426.188 405.182,436.243 382.111,465.758 
									"/>
			</defs>
			<clipPath id="SVGID_6_">
				<use xlink:href="#SVGID_7_"  overflow="visible"/>
			</clipPath>
			<g clip-path="url(#SVGID_6_)">
				<path fill="#616161" d="M393,431.321c-0.455-0.184-1.006-0.244-1.551-0.136l-17.086,3.461c-0.541,0.109-0.969,0.367-1.225,0.696
					c-0.256,0.327-0.34,0.725-0.189,1.112c0.154,0.391,0.514,0.698,0.965,0.881c0.453,0.183,1.006,0.243,1.543,0.133l12.357-2.503
					l-18.658,23.87c-0.551,0.706-0.211,1.603,0.77,1.999s2.223,0.14,2.775-0.566l18.658-23.871l3.451,8.891
					c0.154,0.39,0.512,0.697,0.967,0.881c0.453,0.184,1.004,0.242,1.543,0.133c1.084-0.224,1.715-1.032,1.414-1.809l-4.773-12.294
					C393.809,431.812,393.453,431.505,393,431.321"/>
			</g>
		</g>
	</g>
	<g>
		<g enable-background="new    ">
			<defs>
				<polygon id="SVGID_9_" enable-background="new    " points="15.682,258.306 281.648,-81.957 906.32,170.427 640.354,510.689 
									"/>
			</defs>
			<clipPath id="SVGID_8_">
				<use xlink:href="#SVGID_9_"  overflow="visible"/>
			</clipPath>
			<g clip-path="url(#SVGID_8_)">
				<path fill="#E6E6E6" d="M152.947,299.719l5.398-6.906l0.871,0.352l-5.398,6.906L152.947,299.719 M157.307,301.479l5.398-6.905
					l0.871,0.352l-5.398,6.905L157.307,301.479 M161.66,303.238l5.396-6.905l0.871,0.352l-5.398,6.905L161.66,303.238 M166.02,305
					l5.398-6.906l0.869,0.352l-5.396,6.906L166.02,305 M170.371,306.758l5.398-6.905l0.871,0.352l-5.398,6.905L170.371,306.758
					 M174.73,308.52l5.398-6.905l0.871,0.352l-5.398,6.905L174.73,308.52 M179.084,310.278l5.396-6.906l0.879,0.354l-5.396,6.906
					L179.084,310.278 M183.443,312.039l5.398-6.905l0.871,0.352l-5.4,6.905L183.443,312.039 M187.803,313.801l5.398-6.905
					l0.869,0.352l-5.396,6.905L187.803,313.801 M200.385,306.496l-44.43-17.95l-9.324,11.93l44.43,17.95L200.385,306.496
					 M446.092,333.886l0.49-0.627l15.684,6.336l-0.49,0.627L446.092,333.886 M466.135,341.983l0.49-0.627l15.682,6.336l-0.49,0.627
					L466.135,341.983 M448.549,330.744l0.49-0.628l15.682,6.337l-0.49,0.627L448.549,330.744 M468.59,338.842l0.49-0.627
					l15.684,6.336l-0.49,0.627L468.59,338.842 M451,327.607l0.49-0.627l15.682,6.336l-0.49,0.627L451,327.607 M471.043,335.705
					l0.49-0.627l15.682,6.336l-0.49,0.627L471.043,335.705 M453.455,324.466l0.49-0.628l15.684,6.337l-0.49,0.627L453.455,324.466
					 M473.498,332.563l0.49-0.627l15.684,6.336l-0.49,0.627L473.498,332.563 M455.906,321.329l0.49-0.627l15.684,6.336l-0.49,0.627
					L455.906,321.329 M475.949,329.427l0.49-0.627l15.684,6.336l-0.49,0.627L475.949,329.427 M458.363,318.187l0.49-0.627
					l15.684,6.336l-0.492,0.628L458.363,318.187 M478.406,326.285l0.49-0.628l15.682,6.336l-0.49,0.628L478.406,326.285
					 M460.814,315.051l0.494-0.633l15.684,6.336l-0.494,0.633L460.814,315.051 M480.857,323.148l0.494-0.633l15.684,6.336
					l-0.496,0.633L480.857,323.148 M463.271,311.908l0.49-0.627l15.682,6.336l-0.49,0.628L463.271,311.908 M483.312,320.007
					l0.49-0.628l15.684,6.336l-0.49,0.628L483.312,320.007 M465.727,308.767l0.49-0.627l15.684,6.336l-0.49,0.627L465.727,308.767
					 M485.77,316.864l0.49-0.627l15.682,6.336l-0.49,0.627L485.77,316.864 M468.178,305.63l0.492-0.627l15.682,6.336l-0.49,0.627
					L468.178,305.63 M488.221,313.728l0.49-0.627l15.684,6.336l-0.49,0.627L488.221,313.728 M470.635,302.488l0.49-0.628
					l15.682,6.337l-0.49,0.627L470.635,302.488 M490.676,310.586l0.492-0.627l15.682,6.336l-0.49,0.627L490.676,310.586
					 M473.086,299.352l0.49-0.627l15.684,6.336l-0.492,0.627L473.086,299.352 M493.129,307.449l0.49-0.627l15.682,6.336l-0.49,0.627
					L493.129,307.449 M475.541,296.21l0.49-0.628l15.684,6.337l-0.49,0.627L475.541,296.21 M495.584,304.308l0.49-0.627
					l15.684,6.336l-0.49,0.627L495.584,304.308 M477.994,293.073l0.49-0.627l15.682,6.336l-0.49,0.627L477.994,293.073
					 M498.035,301.171l0.49-0.627l15.684,6.336l-0.49,0.627L498.035,301.171 M480.449,289.931l0.49-0.627l15.684,6.336l-0.49,0.628
					L480.449,289.931 M500.492,298.029l0.49-0.628l15.682,6.336l-0.49,0.628L500.492,298.029 M522.602,302.003l-42.688-17.248
					l-39.756,50.861l42.689,17.247L522.602,302.003 M677.104,223.144l0.49-0.628l15.682,6.337l-0.49,0.627L677.104,223.144
					 M679.555,220.007l0.49-0.627l15.682,6.336l-0.49,0.627L679.555,220.007 M682.01,216.864l0.49-0.627l15.684,6.337l-0.49,0.627
					L682.01,216.864 M684.463,213.729l0.488-0.628l15.684,6.337l-0.49,0.627L684.463,213.729 M686.918,210.586l0.49-0.627
					l15.684,6.337l-0.492,0.627L686.918,210.586 M708.541,215.196l-22.654-9.153l-14.723,18.836l22.654,9.152L708.541,215.196
					 M145.262,300.747l10.311-13.189l46.178,18.657l-10.311,13.189L145.262,300.747 M438.795,335.897l40.738-52.121l44.43,17.95
					l-40.74,52.121L438.795,335.897 M669.805,225.154l15.703-20.09l24.395,9.856l-15.703,20.09L669.805,225.154 M831.613,140.243
					l-43.08-12.535L723.1,105.874l1.035-2.064l-44.021-14.946L457.566,31.168l-0.055-0.022c-0.197-0.064-20.023-7.026-63.777-6.463
					c-54.271,0.699-125.064,54.702-125.77,55.249L19.76,253.09l156.654,63.546l-2.465,3.152l107.926,45.657l65.963,27.06
					l219.834,88.41l24.898,6.781l25.135,1.187l26.064-5.798l20.154-9.822l16.967-14.434l42.955-55.681
					c23.734-33.084,32.127-66.263,32.531-67.899l-0.092-17.995l-11.32-17.988l-20.289-11.967l4.531-16.781l-13.555-5.35
					l28.418-102.012c0.387-0.722,9.496-17.668,14.301-21.2c4.535-3.335,10.18-7.479,20.592-5.488
					c8.781,1.689,44.029,8.747,50.373,10.017L831.613,140.243"/>
				<path fill="#C1C1C1" d="M440.158,335.616l39.756-50.861l42.688,17.248l-39.754,50.86L440.158,335.616 M523.963,301.727
					l-44.43-17.95l-40.738,52.121l44.428,17.95L523.963,301.727"/>
				<polyline fill="#C1C1C1" points="496.623,295.64 480.939,289.304 480.449,289.931 496.133,296.268 496.623,295.64 				"/>
				<polyline fill="#C1C1C1" points="516.664,303.737 500.982,297.401 500.492,298.029 516.174,304.365 516.664,303.737 				"/>
				<polyline fill="#C1C1C1" points="494.166,298.782 478.484,292.446 477.994,293.073 493.676,299.409 494.166,298.782 				"/>
				<polyline fill="#C1C1C1" points="514.209,306.88 498.525,300.544 498.035,301.171 513.719,307.507 514.209,306.88 				"/>
				<polyline fill="#C1C1C1" points="491.715,301.919 476.031,295.582 475.541,296.21 491.225,302.546 491.715,301.919 				"/>
				<polyline fill="#C1C1C1" points="511.758,310.017 496.074,303.681 495.584,304.308 511.268,310.644 511.758,310.017 				"/>
				<polyline fill="#C1C1C1" points="489.26,305.061 473.576,298.725 473.086,299.352 488.768,305.688 489.26,305.061 				"/>
				<polyline fill="#C1C1C1" points="509.301,313.158 493.619,306.822 493.129,307.449 508.811,313.785 509.301,313.158 				"/>
				<polyline fill="#C1C1C1" points="486.807,308.197 471.125,301.86 470.635,302.488 486.316,308.824 486.807,308.197 				"/>
				<polyline fill="#C1C1C1" points="506.85,316.295 491.168,309.959 490.676,310.586 506.359,316.922 506.85,316.295 				"/>
				<polyline fill="#C1C1C1" points="484.352,311.339 468.67,305.003 468.178,305.63 483.861,311.966 484.352,311.339 				"/>
				<polyline fill="#C1C1C1" points="504.395,319.437 488.711,313.101 488.221,313.728 503.904,320.063 504.395,319.437 				"/>
				<polyline fill="#C1C1C1" points="481.9,314.476 466.217,308.14 465.727,308.767 481.41,315.103 481.9,314.476 				"/>
				<polyline fill="#C1C1C1" points="501.941,322.573 486.26,316.237 485.77,316.864 501.451,323.2 501.941,322.573 				"/>
				<polyline fill="#C1C1C1" points="479.443,317.617 463.762,311.281 463.271,311.908 478.953,318.245 479.443,317.617 				"/>
				<polyline fill="#C1C1C1" points="499.486,325.715 483.803,319.379 483.312,320.007 498.996,326.343 499.486,325.715 				"/>
				<polyline fill="#C1C1C1" points="476.992,320.754 461.309,314.418 460.814,315.051 476.498,321.387 476.992,320.754 				"/>
				<polyline fill="#C1C1C1" points="497.035,328.852 481.352,322.516 480.857,323.148 496.539,329.484 497.035,328.852 				"/>
				<polyline fill="#C1C1C1" points="474.537,323.896 458.854,317.56 458.363,318.187 474.045,324.523 474.537,323.896 				"/>
				<polyline fill="#C1C1C1" points="494.578,331.993 478.896,325.657 478.406,326.285 494.088,332.621 494.578,331.993 				"/>
				<polyline fill="#C1C1C1" points="472.08,327.038 456.396,320.702 455.906,321.329 471.59,327.665 472.08,327.038 				"/>
				<polyline fill="#C1C1C1" points="492.123,335.136 476.439,328.8 475.949,329.427 491.633,335.763 492.123,335.136 				"/>
				<polyline fill="#C1C1C1" points="469.629,330.175 453.945,323.838 453.455,324.466 469.139,330.802 469.629,330.175 				"/>
				<polyline fill="#C1C1C1" points="489.672,338.272 473.988,331.937 473.498,332.563 489.182,338.899 489.672,338.272 				"/>
				<polyline fill="#C1C1C1" points="467.172,333.316 451.49,326.98 451,327.607 466.682,333.943 467.172,333.316 				"/>
				<polyline fill="#C1C1C1" points="487.215,341.414 471.533,335.078 471.043,335.705 486.725,342.041 487.215,341.414 				"/>
				<polyline fill="#C1C1C1" points="464.721,336.453 449.039,330.116 448.549,330.744 464.23,337.08 464.721,336.453 				"/>
				<polyline fill="#C1C1C1" points="484.764,344.551 469.08,338.215 468.59,338.842 484.273,345.178 484.764,344.551 				"/>
				<polyline fill="#C1C1C1" points="462.266,339.595 446.582,333.259 446.092,333.886 461.775,340.222 462.266,339.595 				"/>
				<polyline fill="#C1C1C1" points="482.307,347.692 466.625,341.356 466.135,341.983 481.816,348.319 482.307,347.692 				"/>
				<path fill="#C1C1C1" d="M671.164,224.879l14.723-18.836l22.654,9.153l-14.723,18.835L671.164,224.879 M709.902,214.921
					l-24.395-9.856l-15.703,20.09l24.395,9.856L709.902,214.921"/>
				<polyline fill="#C1C1C1" points="703.092,216.296 687.408,209.959 686.918,210.586 702.6,216.923 703.092,216.296 				"/>
				<polyline fill="#C1C1C1" points="700.635,219.438 684.951,213.101 684.463,213.729 700.145,220.064 700.635,219.438 				"/>
				<polyline fill="#C1C1C1" points="698.184,222.574 682.5,216.237 682.01,216.864 697.693,223.201 698.184,222.574 				"/>
				<polyline fill="#C1C1C1" points="695.727,225.716 680.045,219.38 679.555,220.007 695.236,226.343 695.727,225.716 				"/>
				<polyline fill="#C1C1C1" points="693.275,228.853 677.594,222.516 677.104,223.144 692.785,229.479 693.275,228.853 				"/>
				<path fill="#C1C1C1" d="M146.631,300.476l9.324-11.93l44.43,17.95l-9.324,11.93L146.631,300.476 M201.75,306.215l-46.178-18.657
					l-10.311,13.189l46.178,18.657L201.75,306.215"/>
				<polyline fill="#C1C1C1" points="194.07,307.247 193.201,306.896 187.803,313.801 188.674,314.152 194.07,307.247 				"/>
				<polyline fill="#C1C1C1" points="189.713,305.485 188.842,305.134 183.443,312.039 184.312,312.391 189.713,305.485 				"/>
				<polyline fill="#C1C1C1" points="185.359,303.727 184.48,303.372 179.084,310.278 179.963,310.633 185.359,303.727 				"/>
				<polyline fill="#C1C1C1" points="181,301.966 180.129,301.614 174.73,308.52 175.602,308.871 181,301.966 				"/>
				<polyline fill="#C1C1C1" points="176.641,300.204 175.77,299.853 170.371,306.758 171.242,307.109 176.641,300.204 				"/>
				<polyline fill="#C1C1C1" points="172.287,298.445 171.418,298.094 166.02,305 166.891,305.352 172.287,298.445 				"/>
				<polyline fill="#C1C1C1" points="167.928,296.685 167.057,296.333 161.66,303.238 162.529,303.59 167.928,296.685 				"/>
				<polyline fill="#C1C1C1" points="163.576,294.926 162.705,294.574 157.307,301.479 158.178,301.831 163.576,294.926 				"/>
				<polyline fill="#C1C1C1" points="159.217,293.164 158.346,292.812 152.947,299.719 153.818,300.07 159.217,293.164 				"/>
			</g>
		</g>
	</g>
	<polygon fill="none" points="604.342,104.71 603.65,104.431 603.656,106.587 	"/>
	<polygon fill="none" points="655.088,192.135 654.098,191.735 654.104,193.396 648.789,200.194 650.312,200.809 650.367,219.006 
		650.486,219.054 650.426,199.197 696.967,139.656 684.471,134.608 684.533,154.465 	"/>
	<path fill="none" d="M740.771,355.251c0.189-0.372,0.375-0.741,0.561-1.11C741.146,354.51,740.961,354.879,740.771,355.251z"/>
	<path fill="none" d="M738.947,358.768c0.123-0.229,0.238-0.455,0.357-0.684C739.186,358.312,739.07,358.538,738.947,358.768z"/>
	<path fill="none" d="M745.773,344.781c0.328-0.735,0.65-1.462,0.961-2.178C746.424,343.319,746.102,344.046,745.773,344.781z"/>
	<path fill="none" d="M744.488,347.604c0.379-0.817,0.748-1.625,1.105-2.423C745.236,345.979,744.867,346.787,744.488,347.604z"/>
	<path fill="none" d="M743.287,350.155c0.367-0.769,0.727-1.529,1.078-2.283C744.014,348.626,743.654,349.387,743.287,350.155z"/>
	<path fill="none" d="M726.477,379.433c0.26-0.38,0.514-0.759,0.77-1.139C726.99,378.673,726.736,379.053,726.477,379.433z"/>
	<path fill="none" d="M729.061,375.556c0.24-0.369,0.484-0.738,0.719-1.105C729.545,374.817,729.301,375.187,729.061,375.556z"/>
	<path fill="none" d="M734.283,367.114c0.227-0.386,0.449-0.77,0.672-1.153C734.732,366.345,734.51,366.729,734.283,367.114z"/>
	<path fill="none" d="M736.482,363.276c0.188-0.334,0.377-0.668,0.562-1C736.859,362.608,736.67,362.942,736.482,363.276z"/>
	<path fill="none" d="M743.1,350.551c-0.172,0.355-0.352,0.718-0.525,1.076c0.107-0.22,0.223-0.446,0.328-0.664
		C742.969,350.825,743.033,350.688,743.1,350.551z"/>
	<path fill="none" d="M746.828,342.389c0.338-0.777,0.664-1.541,0.98-2.295C747.492,340.847,747.166,341.612,746.828,342.389z"/>
	<path fill="none" d="M756.484,315.272c0.012-0.051,0.025-0.099,0.033-0.132C756.51,315.17,756.494,315.229,756.484,315.272
		L756.484,315.272z"/>
	<path fill="none" d="M751.666,330.306c-0.049,0.131-0.092,0.256-0.141,0.389c0.047-0.129,0.096-0.26,0.143-0.389H751.666z"/>
	<path fill="none" d="M747.967,339.72c0.293-0.699,0.578-1.39,0.854-2.067C748.545,338.33,748.26,339.021,747.967,339.72z"/>
	<path fill="none" d="M748.889,337.485c0.299-0.732,0.586-1.451,0.865-2.157C749.475,336.034,749.188,336.753,748.889,337.485z"/>
	<path fill="none" d="M750.676,332.954c0.262-0.682,0.51-1.345,0.752-1.995C751.186,331.608,750.936,332.272,750.676,332.954z"/>
	<path fill="none" d="M749.875,335.021c0.264-0.673,0.521-1.335,0.768-1.982C750.396,333.687,750.139,334.349,749.875,335.021z"/>
	<path fill="none" d="M732.074,370.804c0.104-0.168,0.201-0.334,0.303-0.502C732.275,370.47,732.178,370.636,732.074,370.804z"/>
	<polygon fill="none" points="696.146,237.501 696.154,240.42 697.537,238.651 697.475,218.206 704.75,208.899 684.934,200.893 
		665.877,225.271 	"/>
	<g>
		<g>
			<polygon fill="none" points="211.377,286.042 211.377,286.021 211.285,286.026 			"/>
			<path fill="#E1B900" d="M555.65,38.839l-0.008-2.919l-98.176-25.396c-0.197-0.065-19.811-6.94-63.564-6.378
				c-28.305,0.371-61.016,15.449-83.461,28.033c-24.393,13.68-42.27,27.44-42.439,27.58L43.07,217.373l0.062,0.024l-0.86,20.8
				L198,300.719v-0.197l12.349-14.479l0.583-0.016l119.146,38.335l-0.563,2.919l0.485-1.262v-0.096l0.851-0.287l10.991,4.314
				L537.744,79.523l2.795-3.476l-0.016-17.905L555.65,38.839z M211.377,286.042l-0.092-0.016l0.092-0.006V286.042z"/>
		</g>
		<polygon opacity="0.2" points="555.65,38.839 555.643,35.92 537.836,58.699 331.168,323.102 331.176,326.019 331.477,325.636 
			342.154,329.95 537.9,79.523 540.617,76.048 540.562,58.143 		"/>
		<polygon opacity="0.4" points="330.593,323.102 210,284.452 210,284.45 42.444,217.373 41.928,238.197 198,300.719 198,300.521 
			209.66,286.042 210,286.021 210,286.042 210.569,286.021 329.906,324.361 330.053,327.28 330.819,326.019 		"/>
	</g>
	<g>
		<polygon fill="#AEAEAE" points="330.324,327.28 330.248,324.361 211.154,286.021 210.229,286.042 198,300.521 198,300.719 
			198.956,321.346 312.9,367.106 315,364.89 315,346.986 		"/>
		<polygon opacity="0.2" points="330.191,327.28 330.182,324.361 313.047,346.282 313.111,367.106 314.844,364.89 314.789,346.986 
					"/>
		<polygon opacity="0.4" points="198,300.521 198,300.719 198.956,321.346 312.768,367.106 312.187,346.282 		"/>
	</g>
	<g>
		<polygon fill="#AEAEAE" points="632.854,55.939 557.547,36.414 555.65,38.839 540.562,58.143 540.617,76.048 540.625,78.967 
			543.891,80.286 545.936,77.669 603.639,100.983 603.65,104.431 604.342,104.71 605.436,101.709 609.447,103.33 611.504,104.161 
			632.918,76.764 		"/>
		<polygon opacity="0.2" points="609.447,103.33 611.504,104.161 632.918,76.764 632.854,55.939 609.395,85.953 		"/>
		<polygon opacity="0.4" points="603.639,100.983 603.65,104.431 604.342,104.71 605.436,101.709 609.447,103.33 609.395,85.953 
			540.562,58.143 540.617,76.048 540.625,78.967 543.891,80.286 545.936,77.669 		"/>
	</g>
	<g>
		<path fill="#E1B900" d="M831.965,119.789l-43.484-12.705l-1.459-0.509l-1.803,2.305l-5.5,7.036l0.057,17.905l0.008,2.919
			c10.627,2.101,43.619,8.745,49.617,9.956l2.629-6.083L831.965,119.789z"/>
		<path opacity="0.4" d="M779.719,115.916l0.057,17.905l0.008,2.919c10.627,2.101,43.619,8.745,49.617,9.956l-0.064-20.823
			C823.338,124.661,790.346,118.018,779.719,115.916z"/>
		<polygon opacity="0.2" points="831.965,119.789 829.336,125.873 829.4,146.696 832.029,140.613 		"/>
	</g>
	<g>
		<polygon fill="#D827A9" points="603.656,106.587 603.65,104.431 603.639,100.983 545.936,77.669 543.891,80.286 516.49,115.34 
			516.553,136.164 579.066,161.421 587.701,150.376 589.689,147.831 589.682,144.911 		"/>
		<polygon opacity="0.2" points="603.656,106.587 603.65,104.431 603.639,100.983 587.682,144.104 587.701,150.376 589.689,147.831 
			589.682,144.911 		"/>
		<polygon opacity="0.4" points="587.682,144.104 516.49,115.34 516.553,136.164 579.066,161.421 587.701,150.376 		"/>
	</g>
	<g>
		<polygon fill="#AEAEAE" points="684.471,134.608 684.469,133.641 654.492,121.529 611.504,104.161 609.447,103.33 
			605.436,101.709 604.342,104.71 603.656,106.587 589.682,144.911 589.689,147.831 590.438,146.875 608.73,154.266 608.74,157.185 
			610.473,154.969 654.039,172.571 654.098,191.735 655.088,192.135 684.533,154.465 		"/>
		<polygon opacity="0.4" points="610.473,154.969 654.039,172.571 654.098,191.735 655.088,192.135 655.023,171.312 
			611.457,153.709 609.717,153.006 589.682,144.911 589.689,147.831 590.438,146.875 608.73,154.266 608.74,157.185 		"/>
		<polygon opacity="0.2" points="684.533,154.465 684.471,134.608 684.469,133.641 655.023,171.312 655.088,192.135 		"/>
	</g>
	<g>
		<polygon fill="#AEAEAE" points="608.74,157.185 608.73,154.266 590.438,146.875 589.689,147.831 587.701,150.376 579.066,161.421 
			573.754,168.219 573.758,169.879 591.062,176.871 592.051,177.271 592.803,177.574 593.793,177.975 593.787,176.314 		"/>
		<polygon opacity="0.2" points="608.74,157.185 608.73,154.266 592.047,175.611 592.051,177.271 592.803,177.574 593.793,177.975 
			593.787,176.314 		"/>
		<polygon opacity="0.4" points="592.051,177.271 592.047,175.611 573.754,168.219 573.758,169.879 591.062,176.871 		"/>
	</g>
	<g>
		<polygon fill="#AEAEAE" points="654.098,191.735 654.039,172.571 610.473,154.969 608.74,157.185 593.787,176.314 
			593.793,177.975 603.264,181.801 603.271,184.719 605.004,182.504 637.359,195.575 638.111,195.879 647.693,199.751 
			648.789,200.194 654.104,193.396 		"/>
		<polygon opacity="0.4" points="603.271,184.719 605.004,182.504 637.359,195.575 637.355,193.916 605.988,181.244 604.248,180.54 
			593.787,176.314 593.793,177.975 603.264,181.801 		"/>
		<polygon opacity="0.2" points="654.098,191.735 654.039,172.571 637.355,193.916 637.359,195.575 638.111,195.879 
			647.693,199.751 648.789,200.194 654.104,193.396 		"/>
	</g>
	<g>
		<g>
			<path fill="none" d="M774.395,115.273c-0.012,0-0.023-0.001-0.033-0.002l0.004,0.014c0.174,0.003,0.371,0.008,0.564,0.013
				C774.752,115.292,774.568,115.276,774.395,115.273z"/>
			<path fill="#E1B900" d="M785.219,108.88l-0.008-2.917l-61.268-20.409l-0.008-2.43l-43.461-14.771l-26.043,33.32l0.061,19.855
				l29.977,12.111l0.002,0.968l12.496,5.048l-46.541,59.541l0.061,19.856l14.812,5.984l0.578,0.233l19.057-24.379l19.816,8.007
				l11.375-14.553l12.248,4.948l0.059,19.171l0.422,0.171l15.41-54.777c0.059-0.112,0.32-0.623,0.732-1.409
				c0.014-0.027,0.029-0.058,0.045-0.086c0.072-0.139,0.15-0.284,0.23-0.438c0.01-0.019,0.02-0.037,0.029-0.055
				c0.088-0.167,0.182-0.342,0.277-0.524c0.012-0.02,0.021-0.039,0.031-0.059c0.096-0.179,0.195-0.362,0.297-0.556
				c0.02-0.033,0.037-0.066,0.055-0.1c0.102-0.19,0.209-0.387,0.318-0.588c0.018-0.033,0.033-0.064,0.051-0.097
				c0.107-0.198,0.219-0.401,0.332-0.608c0.025-0.049,0.053-0.096,0.078-0.145c0.111-0.201,0.223-0.406,0.338-0.615
				c0.031-0.055,0.061-0.107,0.09-0.162c0.117-0.211,0.236-0.425,0.357-0.643c0.029-0.055,0.061-0.108,0.09-0.164
				c0.129-0.229,0.258-0.46,0.391-0.694c0.025-0.046,0.051-0.092,0.078-0.138c0.15-0.269,0.305-0.54,0.463-0.814
				c0.006-0.012,0.012-0.023,0.02-0.035c0.668-1.17,1.383-2.389,2.121-3.603c0.021-0.037,0.045-0.074,0.068-0.112
				c0.156-0.256,0.312-0.512,0.471-0.768c0.049-0.078,0.098-0.156,0.146-0.234c0.133-0.215,0.268-0.43,0.402-0.643
				c0.059-0.094,0.117-0.186,0.176-0.279c0.127-0.196,0.252-0.393,0.377-0.587c0.064-0.101,0.131-0.2,0.195-0.3
				c0.119-0.184,0.24-0.367,0.359-0.548c0.068-0.104,0.139-0.206,0.207-0.31c0.117-0.176,0.234-0.35,0.352-0.521
				c0.07-0.102,0.139-0.201,0.207-0.302c0.115-0.167,0.23-0.332,0.346-0.495c0.072-0.103,0.145-0.204,0.217-0.305
				c0.109-0.155,0.221-0.308,0.33-0.458c0.074-0.101,0.146-0.2,0.221-0.3c0.107-0.145,0.215-0.287,0.32-0.428
				c0.074-0.097,0.148-0.193,0.223-0.288c0.105-0.136,0.209-0.268,0.314-0.398c0.072-0.09,0.145-0.181,0.215-0.268
				c0.105-0.128,0.207-0.249,0.311-0.37c0.07-0.083,0.141-0.168,0.209-0.247c0.104-0.118,0.203-0.229,0.305-0.339
				c0.066-0.074,0.135-0.15,0.201-0.221c0.104-0.11,0.203-0.211,0.305-0.312c0.061-0.062,0.123-0.128,0.184-0.187
				c0.012-0.011,0.021-0.022,0.033-0.033c0.105-0.103,0.209-0.192,0.312-0.285c0.039-0.036,0.082-0.077,0.121-0.111
				c0.154-0.133,0.305-0.255,0.453-0.363c0.359-0.265,0.734-0.538,1.115-0.813c0.098-0.07,0.193-0.139,0.291-0.209
				c0.412-0.294,0.836-0.59,1.277-0.885c0.021-0.015,0.041-0.029,0.064-0.045c0.043-0.029,0.09-0.057,0.135-0.086
				c0.342-0.226,0.693-0.448,1.053-0.669c0.1-0.061,0.197-0.12,0.297-0.181c0.436-0.26,0.883-0.516,1.348-0.76
				c0.027-0.014,0.055-0.026,0.082-0.041c0.428-0.223,0.873-0.434,1.328-0.638c0.129-0.058,0.26-0.113,0.391-0.169
				c0.438-0.186,0.885-0.361,1.348-0.524c0.059-0.021,0.111-0.046,0.17-0.066c0.018-0.006,0.037-0.011,0.055-0.017
				c0.229-0.077,0.469-0.145,0.705-0.216c0.197-0.059,0.389-0.123,0.59-0.178c0.26-0.069,0.531-0.126,0.797-0.188
				c0.184-0.042,0.359-0.091,0.547-0.128c0.008-0.002,0.018-0.003,0.025-0.004c0.035-0.008,0.072-0.012,0.107-0.019
				c0.383-0.074,0.777-0.138,1.178-0.191c0.145-0.02,0.293-0.034,0.439-0.051c0.18-0.021,0.355-0.046,0.539-0.062
				c0.141-0.013,0.287-0.017,0.43-0.026c0.139-0.01-0.454-0.02-0.315-0.026l0.737-0.028v-0.018c1,0.012,1.743,0.052,2.208,0.088
				c0.133,0.01,0.636,0.026,0.769,0.039c0.266,0.024,0.711,0.043,0.982,0.077c0.213,0.026,0.516,0.056,0.732,0.088l-0.016-20.824
				l0.084,20.824l2.005-2.55l-0.052-17.905L785.219,108.88z M774.365,115.285l-0.004-0.014c0.01,0.001,0.021,0.002,0.033,0.002
				c0.174,0.003,0.357,0.019,0.535,0.024C774.736,115.293,774.539,115.288,774.365,115.285z"/>
		</g>
		<polygon opacity="0.2" points="723.943,85.554 723.936,83.124 723.117,85.278 		"/>
		<polygon opacity="0.2" points="785.219,108.88 785.211,105.963 777.719,115.547 777.781,136.371 779.775,133.821 779.719,115.916 
					"/>
		<polygon opacity="0.4" points="700.939,120.463 654.432,101.674 654.492,121.529 684.469,133.641 684.471,134.608 
			696.967,139.656 700.982,134.518 705.125,129.219 		"/>
		<polygon opacity="0.4" points="715.357,192.386 684.869,180.068 684.934,200.893 704.75,208.899 716.125,194.347 728.373,199.295 
			728.432,218.466 728.854,218.637 728.789,197.812 		"/>
		<path opacity="0.2" d="M777.719,115.547c-0.221-0.032-0.428-0.047-0.643-0.073c-0.268-0.033-0.537-0.068-0.797-0.092
			c-0.135-0.013-0.273-0.029-0.406-0.039c-0.467-0.036-1.043-0.051-1.508-0.058l-0.004-0.014c-0.068-0.001-0.133,0.003-0.199,0.003
			c-0.422-0.003-0.836,0.007-1.242,0.027c-0.131,0.006-0.262,0.016-0.391,0.024c-0.15,0.01-0.297,0.027-0.445,0.041
			c-0.188,0.017-0.377,0.03-0.561,0.052c-0.137,0.016-0.273,0.029-0.406,0.047c-0.391,0.053-0.773,0.115-1.15,0.187
			c-0.051,0.01-0.104,0.017-0.154,0.026c-0.006,0.001-0.01,0.003-0.016,0.004c-0.129,0.025-0.25,0.06-0.377,0.088
			c-0.328,0.071-0.656,0.143-0.971,0.228c-0.184,0.05-0.357,0.108-0.537,0.162c-0.256,0.075-0.512,0.148-0.76,0.231
			c-0.016,0.006-0.033,0.013-0.049,0.019c-0.055,0.019-0.107,0.041-0.162,0.06c-0.463,0.163-0.912,0.339-1.35,0.524
			c-0.137,0.059-0.273,0.117-0.408,0.178c-0.434,0.194-0.857,0.396-1.268,0.608c-0.047,0.024-0.098,0.048-0.145,0.072
			c-0.455,0.238-0.891,0.488-1.314,0.741c-0.119,0.07-0.234,0.141-0.35,0.212c-0.34,0.209-0.67,0.419-0.994,0.632
			c-0.053,0.035-0.109,0.071-0.162,0.106c-0.025,0.017-0.051,0.033-0.076,0.051c-0.439,0.293-0.859,0.587-1.27,0.879
			c-0.092,0.066-0.182,0.131-0.271,0.195c-0.387,0.279-0.768,0.557-1.131,0.824c-0.146,0.107-0.295,0.228-0.447,0.359
			c-0.047,0.04-0.096,0.088-0.145,0.131c-0.098,0.087-0.195,0.176-0.295,0.272c-0.014,0.014-0.027,0.024-0.041,0.038
			c-0.041,0.04-0.084,0.085-0.125,0.126c-0.121,0.12-0.242,0.242-0.365,0.374c-0.051,0.056-0.105,0.116-0.156,0.174
			c-0.115,0.125-0.23,0.251-0.348,0.385c-0.059,0.069-0.121,0.143-0.182,0.215c-0.111,0.131-0.223,0.264-0.336,0.402
			c-0.064,0.078-0.131,0.161-0.195,0.242c-0.111,0.139-0.223,0.278-0.334,0.424c-0.07,0.089-0.141,0.181-0.209,0.272
			c-0.109,0.143-0.219,0.287-0.328,0.435c-0.074,0.099-0.146,0.199-0.221,0.3c-0.109,0.15-0.219,0.303-0.33,0.458
			c-0.074,0.103-0.146,0.206-0.221,0.311c-0.109,0.156-0.221,0.314-0.33,0.475c-0.076,0.109-0.15,0.219-0.227,0.329
			c-0.109,0.161-0.221,0.325-0.33,0.489c-0.076,0.113-0.152,0.228-0.229,0.344c-0.109,0.164-0.219,0.331-0.328,0.498
			c-0.076,0.118-0.154,0.236-0.23,0.355c-0.109,0.168-0.217,0.338-0.326,0.508c-0.076,0.121-0.154,0.24-0.23,0.362
			c-0.111,0.177-0.223,0.354-0.334,0.532c-0.07,0.114-0.143,0.229-0.213,0.344c-0.119,0.19-0.236,0.383-0.354,0.574
			c-0.064,0.105-0.129,0.21-0.191,0.315c-0.127,0.207-0.252,0.415-0.375,0.622c-0.055,0.09-0.109,0.18-0.162,0.27
			c-0.355,0.594-0.703,1.186-1.041,1.77c-0.049,0.084-0.096,0.167-0.145,0.251c-0.121,0.208-0.24,0.416-0.357,0.621
			c-0.055,0.095-0.107,0.188-0.162,0.283c-0.107,0.191-0.217,0.383-0.324,0.571c-0.059,0.104-0.115,0.205-0.172,0.308
			c-0.098,0.171-0.193,0.343-0.287,0.511c-0.062,0.111-0.123,0.221-0.186,0.332c-0.088,0.16-0.178,0.32-0.264,0.478
			c-0.055,0.097-0.105,0.19-0.158,0.286c-0.092,0.167-0.184,0.333-0.273,0.495c-0.045,0.085-0.09,0.167-0.137,0.251
			c-0.09,0.164-0.178,0.326-0.264,0.484c-0.039,0.074-0.08,0.147-0.119,0.221c-0.088,0.162-0.172,0.319-0.254,0.473
			c-0.037,0.066-0.072,0.131-0.105,0.196c-0.084,0.153-0.164,0.304-0.24,0.448c-0.029,0.056-0.059,0.11-0.088,0.164
			c-0.078,0.148-0.154,0.291-0.227,0.428c-0.023,0.044-0.047,0.088-0.07,0.131c-0.074,0.141-0.143,0.273-0.209,0.399
			c-0.02,0.034-0.037,0.069-0.055,0.103c-0.074,0.14-0.143,0.271-0.205,0.393c-0.006,0.009-0.01,0.019-0.014,0.027
			c-0.285,0.545-0.463,0.893-0.51,0.984l-15.412,54.776l0.064,20.824l15.41-54.777c0.059-0.112,0.32-0.623,0.732-1.409
			c0.014-0.027,0.029-0.058,0.045-0.086c0.072-0.139,0.15-0.284,0.23-0.438c0.01-0.019,0.02-0.037,0.029-0.055
			c0.088-0.167,0.182-0.342,0.277-0.524c0.012-0.02,0.021-0.039,0.031-0.059c0.096-0.179,0.195-0.362,0.297-0.556
			c0.02-0.033,0.037-0.066,0.055-0.1c0.102-0.19,0.209-0.387,0.318-0.588c0.018-0.033,0.033-0.064,0.051-0.097
			c0.107-0.198,0.219-0.401,0.332-0.608c0.025-0.049,0.053-0.096,0.078-0.145c0.111-0.201,0.223-0.406,0.338-0.615
			c0.031-0.055,0.061-0.107,0.09-0.162c0.117-0.211,0.236-0.425,0.357-0.643c0.029-0.055,0.061-0.108,0.09-0.164
			c0.129-0.229,0.258-0.46,0.391-0.694c0.025-0.046,0.051-0.092,0.078-0.138c0.15-0.269,0.305-0.54,0.463-0.814
			c0.006-0.012,0.012-0.023,0.02-0.035c0.668-1.17,1.383-2.389,2.121-3.603c0.021-0.037,0.045-0.074,0.068-0.112
			c0.156-0.256,0.312-0.512,0.471-0.768c0.049-0.078,0.098-0.156,0.146-0.234c0.133-0.215,0.268-0.43,0.402-0.643
			c0.059-0.094,0.117-0.186,0.176-0.279c0.127-0.196,0.252-0.393,0.377-0.587c0.064-0.101,0.131-0.2,0.195-0.3
			c0.119-0.184,0.24-0.367,0.359-0.548c0.068-0.104,0.139-0.206,0.207-0.31c0.117-0.176,0.234-0.35,0.352-0.521
			c0.07-0.102,0.139-0.201,0.207-0.302c0.115-0.167,0.23-0.332,0.346-0.495c0.072-0.103,0.145-0.204,0.217-0.305
			c0.109-0.155,0.221-0.308,0.33-0.458c0.074-0.101,0.146-0.2,0.221-0.3c0.107-0.145,0.215-0.287,0.32-0.428
			c0.074-0.097,0.148-0.193,0.223-0.288c0.105-0.136,0.209-0.268,0.314-0.398c0.072-0.09,0.145-0.181,0.215-0.268
			c0.105-0.128,0.207-0.249,0.311-0.37c0.07-0.083,0.141-0.168,0.209-0.247c0.104-0.118,0.203-0.229,0.305-0.339
			c0.066-0.074,0.135-0.15,0.201-0.221c0.104-0.11,0.203-0.211,0.305-0.312c0.061-0.062,0.123-0.128,0.184-0.187
			c0.012-0.011,0.021-0.022,0.033-0.033c0.105-0.103,0.209-0.192,0.312-0.285c0.039-0.036,0.082-0.077,0.121-0.111
			c0.154-0.133,0.305-0.255,0.453-0.363c0.359-0.265,0.734-0.538,1.115-0.813c0.098-0.07,0.193-0.139,0.291-0.209
			c0.412-0.294,0.836-0.59,1.277-0.885c0.021-0.015,0.041-0.029,0.064-0.045c0.043-0.029,0.09-0.057,0.135-0.086
			c0.342-0.226,0.693-0.448,1.053-0.669c0.1-0.061,0.197-0.12,0.297-0.181c0.436-0.26,0.883-0.516,1.348-0.76
			c0.027-0.014,0.055-0.026,0.082-0.041c0.428-0.223,0.873-0.434,1.328-0.638c0.129-0.058,0.26-0.113,0.391-0.169
			c0.438-0.186,0.885-0.361,1.348-0.524c0.059-0.021,0.111-0.046,0.17-0.066c0.018-0.006,0.037-0.011,0.055-0.017
			c0.229-0.077,0.469-0.145,0.705-0.216c0.197-0.059,0.389-0.123,0.59-0.178c0.26-0.069,0.531-0.126,0.797-0.188
			c0.184-0.042,0.359-0.091,0.547-0.128c0.008-0.002,0.018-0.003,0.025-0.004c0.035-0.008,0.072-0.012,0.107-0.019
			c0.383-0.074,0.777-0.138,1.178-0.191c0.145-0.02,0.293-0.034,0.439-0.051c0.18-0.021,0.355-0.046,0.539-0.062
			c0.141-0.013,0.287-0.017,0.43-0.026c0.139-0.01-0.454-0.02-0.315-0.026l0.737-0.028v-0.018c1,0.012,1.743,0.052,2.208,0.088
			c0.133,0.01,0.636,0.026,0.769,0.039c0.266,0.024,0.711,0.043,0.982,0.077c0.213,0.026,0.516,0.056,0.732,0.088L777.719,115.547z"
			/>
		<polygon opacity="0.4" points="665.299,225.038 665.238,205.182 653.037,200.252 650.426,199.197 650.486,219.054 		"/>
		<polygon opacity="0.2" points="665.299,225.038 665.877,225.271 684.934,200.893 684.869,180.068 665.238,205.182 		"/>
	</g>
	<g>
		<polygon fill="#D827A9" points="728.432,218.466 728.373,199.295 716.125,194.347 704.75,208.899 697.475,218.206 
			697.537,238.651 697.887,238.204 716.189,245.599 720.582,247.374 720.828,247.473 728.436,220.119 		"/>
		<polygon opacity="0.2" points="720.521,227.518 720.582,247.374 720.828,247.473 728.436,220.119 728.432,218.466 
			728.373,199.295 		"/>
		<polygon opacity="0.4" points="697.537,238.651 697.887,238.204 716.189,245.599 720.582,247.374 720.521,227.518 
			697.475,218.206 		"/>
	</g>
	<g>
		<polygon fill="#D82400" points="547.504,159.271 511.777,144.838 471.533,196.326 471.537,197.979 506.277,212.014 
			506.285,214.932 507.266,213.677 508.018,212.717 508.998,211.463 547.512,162.189 		"/>
		<polygon opacity="0.2" points="507.266,213.677 508.018,212.717 508.998,211.463 547.512,162.189 547.504,159.271 507.258,210.76 
					"/>
		<polygon opacity="0.4" points="506.285,214.932 507.266,213.677 507.258,210.76 471.533,196.326 471.537,197.979 506.277,212.014 
					"/>
	</g>
	<g>
		<polygon fill="#4587D7" points="506.277,212.014 471.537,197.979 470.551,197.58 445.029,230.232 445.033,231.886 
			479.773,245.921 479.781,248.841 480.762,247.587 481.514,246.625 482.494,245.37 506.285,214.932 		"/>
		<polygon opacity="0.2" points="480.754,244.666 480.762,247.587 481.514,246.625 482.494,245.37 506.285,214.932 506.277,212.014 
					"/>
		<polygon opacity="0.4" points="479.781,248.841 480.762,247.587 480.754,244.666 445.029,230.232 445.033,231.886 
			479.773,245.921 		"/>
	</g>
	<g>
		<polygon fill="#D827A9" points="479.781,248.841 479.773,245.921 445.033,231.886 444.049,231.487 428.34,251.583 
			428.346,253.236 463.086,267.271 463.145,286.442 464.131,286.841 473.459,274.905 476.172,271.435 476.117,253.53 		"/>
		<polygon opacity="0.2" points="476.117,253.53 479.781,248.841 479.773,245.921 473.395,254.082 464.066,266.017 464.131,286.841 
			473.459,274.905 476.172,271.435 		"/>
		<polygon opacity="0.4" points="428.34,251.583 428.346,253.236 463.086,267.271 463.145,286.442 464.131,286.841 464.066,266.017 
					"/>
	</g>
	<g>
		<polygon fill="#D827A9" points="463.145,286.442 463.086,267.271 428.346,253.236 427.359,252.838 409.885,275.193 
			409.949,296.018 412.736,304.081 441.553,315.724 463.148,288.096 		"/>
		<polygon opacity="0.2" points="441.49,294.9 441.553,315.724 463.148,288.096 463.145,286.442 463.086,267.271 		"/>
		<polygon opacity="0.4" points="441.49,294.9 412.672,283.257 409.885,275.193 409.949,296.018 412.736,304.081 441.553,315.724 		
			"/>
	</g>
	<g>
		<polygon fill="#E1B900" points="425.598,334.292 418.809,320.432 384.283,306.482 361.213,335.998 361.217,337.651 
			408.15,356.613 408.209,375.785 409.195,376.184 425.662,355.115 		"/>
		<polygon opacity="0.2" points="409.195,376.184 425.662,355.115 425.598,334.292 409.131,355.359 		"/>
		<polygon opacity="0.4" points="408.209,375.785 409.195,376.184 409.131,355.359 361.213,335.998 361.217,337.651 408.15,356.613 
					"/>
	</g>
	<g>
		<polygon fill="#D827A9" points="408.209,375.785 408.15,356.613 361.217,337.651 358.49,336.55 342.154,329.95 331.477,325.636 
			331.176,326.019 330.191,327.28 314.789,346.986 314.844,364.89 314.852,367.81 391.525,398.788 408.213,377.438 		"/>
		<polygon opacity="0.2" points="391.463,377.964 391.525,398.788 408.213,377.438 408.209,375.785 408.15,356.613 		"/>
		<polygon opacity="0.4" points="314.789,346.986 314.844,364.89 314.852,367.81 391.525,398.788 391.463,377.964 		"/>
	</g>
	<g>
		<polygon fill="#51CBD6" points="756.43,297.117 745.234,278.98 729.146,269.763 729.088,250.811 720.828,247.473 720.582,247.374 
			716.189,245.599 697.887,238.204 697.537,238.651 696.154,240.42 668.438,275.881 668.441,277.533 684.01,283.823 684.02,286.757 
			685.76,284.529 726.707,301.074 726.715,303.992 728.447,301.777 756.281,313.022 756.277,311.37 		"/>
		<polygon opacity="0.2" points="729.146,269.763 729.088,250.811 724.762,267.25 		"/>
		<polygon opacity="0.4" points="684.01,283.823 684.02,286.757 685.76,284.529 726.707,301.074 726.715,303.992 728.447,301.777 
			756.281,313.022 756.277,311.37 729.428,300.522 727.688,299.819 686.74,283.275 684.99,282.568 668.438,275.881 668.441,277.533 
					"/>
	</g>
	<path fill="#317B81" d="M756.291,316.006c-0.037,0.142-0.076,0.285-0.123,0.457c0.045-0.166,0.086-0.317,0.123-0.455V316.006z"/>
	<path fill="#34838A" d="M756.484,315.272c-0.012,0.04-0.018,0.069-0.031,0.122C756.463,315.351,756.475,315.308,756.484,315.272
		L756.484,315.272z"/>
	<g>
		<polygon fill="#55CE15" points="649.172,272.662 649.164,269.744 564.762,235.645 564.758,233.992 603.271,184.719 
			603.264,181.801 593.793,177.975 592.803,177.574 592.051,177.271 591.062,176.871 573.758,169.879 571.027,168.775 
			549.244,159.975 547.512,162.189 508.998,211.463 508.018,212.717 507.266,213.677 506.285,214.932 482.494,245.37 
			481.514,246.625 480.762,247.587 479.781,248.841 476.117,253.53 476.172,271.435 476.18,274.354 527.363,295.033 
			508.307,319.412 508.371,340.236 585.914,371.566 587.646,369.351 587.592,351.445 		"/>
		<polygon opacity="0.2" points="603.271,184.719 603.264,181.801 562.037,234.543 564.762,235.645 564.758,233.992 		"/>
		<polygon opacity="0.4" points="476.117,253.53 476.172,271.435 476.18,274.354 527.363,295.033 539.719,279.227 		"/>
		<polygon opacity="0.2" points="649.172,272.662 649.164,269.744 585.852,350.742 585.914,371.566 587.646,369.351 
			587.592,351.445 		"/>
		<polygon opacity="0.4" points="508.307,319.412 508.371,340.236 585.914,371.566 585.852,350.742 		"/>
	</g>
	<g>
		<polygon fill="#55CE15" points="684.01,283.823 668.441,277.533 668.438,275.881 696.154,240.42 696.146,237.501 665.877,225.271 
			665.299,225.038 650.486,219.054 650.367,219.006 650.312,200.809 648.789,200.194 647.693,199.751 638.111,195.879 
			637.359,195.575 605.004,182.504 603.271,184.719 564.758,233.992 564.762,235.645 649.164,269.744 649.172,272.662 
			587.592,351.445 587.646,369.351 587.656,372.27 620.762,385.646 622.5,383.421 622.447,365.527 684.02,286.757 		"/>
		<polygon opacity="0.2" points="639.516,214.621 650.367,219.006 650.312,200.809 		"/>
		<polygon opacity="0.4" points="564.758,233.992 564.762,235.645 649.164,269.744 649.172,272.662 651.885,269.192 		"/>
		<polygon opacity="0.2" points="665.717,276.432 668.441,277.533 668.438,275.881 696.154,240.42 696.146,237.501 		"/>
		<polygon opacity="0.2" points="684.02,286.757 684.01,283.823 620.697,364.821 620.762,385.646 622.5,383.421 622.447,365.527 		
			"/>
		<polygon opacity="0.4" points="587.592,351.445 587.646,369.351 587.656,372.27 620.762,385.646 620.697,364.821 		"/>
	</g>
	<g>
		<polygon fill="#55CE15" points="726.715,303.992 726.707,301.074 685.76,284.529 684.02,286.757 622.447,365.527 622.5,383.421 
			622.51,386.352 663.459,402.896 665.189,400.681 665.135,382.775 683.785,358.916 684.77,359.314 684.766,357.661 		"/>
		<polygon opacity="0.2" points="683.785,358.916 684.77,359.314 684.766,357.661 726.715,303.992 726.707,301.074 683.025,356.958 
			682.045,358.213 663.395,382.072 663.459,402.896 665.189,400.681 665.135,382.775 		"/>
		<polygon opacity="0.4" points="622.447,365.527 622.5,383.421 622.51,386.352 663.459,402.896 663.395,382.072 		"/>
	</g>
	<g>
		<polygon fill="#D827A9" points="700.346,368.524 700.338,365.604 684.77,359.314 683.785,358.916 665.135,382.775 
			665.189,400.681 665.199,403.6 681.754,410.287 683.484,408.072 683.43,390.166 		"/>
		<polygon opacity="0.4" points="665.135,382.775 665.189,400.681 665.199,403.6 681.754,410.287 681.689,389.463 		"/>
		<polygon opacity="0.2" points="700.346,368.524 700.338,365.604 681.689,389.463 681.754,410.287 683.484,408.072 683.43,390.166 
					"/>
	</g>
	<g>
		<path fill="#D827A9" d="M756.518,315.141l-0.035-0.352l-0.174-1.756l-0.027-0.011l-27.834-11.245l-1.732,2.215l-41.949,53.669
			l0.004,1.653l15.568,6.289l0.008,2.921l-16.916,21.642l0.055,17.906l0.01,2.918l26.715,10.794l13.721-17.79
			c0.896-1.248,1.762-2.497,2.615-3.743c0.256-0.373,0.504-0.746,0.756-1.117c0.625-0.929,1.24-1.855,1.842-2.781
			c0.23-0.354,0.463-0.708,0.691-1.062c0.789-1.229,1.564-2.457,2.312-3.678c0.086-0.139,0.166-0.275,0.25-0.413
			c0.672-1.1,1.324-2.193,1.963-3.283c0.217-0.369,0.43-0.736,0.645-1.104c0.531-0.921,1.053-1.836,1.562-2.747
			c0.178-0.316,0.359-0.635,0.533-0.949c0.658-1.189,1.301-2.371,1.92-3.539c0.109-0.207,0.213-0.409,0.322-0.615
			c0.512-0.975,1.014-1.941,1.5-2.9c0.186-0.363,0.369-0.726,0.549-1.087c0.428-0.853,0.844-1.696,1.252-2.532
			c0.107-0.222,0.217-0.445,0.324-0.665c0.064-0.133,0.133-0.269,0.195-0.401c0.064-0.133,0.127-0.264,0.189-0.396
			c0.367-0.77,0.729-1.533,1.078-2.288c0.041-0.087,0.082-0.175,0.123-0.261c0.381-0.824,0.752-1.637,1.113-2.44
			c0.055-0.122,0.107-0.241,0.162-0.362c0.334-0.749,0.662-1.49,0.979-2.22c0.027-0.062,0.057-0.126,0.082-0.188
			c0.34-0.783,0.67-1.553,0.99-2.312c0.049-0.117,0.096-0.233,0.145-0.35c0.297-0.709,0.586-1.407,0.867-2.094
			c0.02-0.049,0.041-0.1,0.061-0.149c0.297-0.729,0.582-1.444,0.861-2.147c0.045-0.115,0.09-0.23,0.135-0.346
			c0.258-0.654,0.508-1.299,0.748-1.928c0.018-0.041,0.033-0.085,0.049-0.127c0.254-0.664,0.498-1.312,0.734-1.948
			c0.043-0.12,0.088-0.238,0.131-0.356c0.215-0.58,0.422-1.15,0.621-1.703c0.016-0.046,0.033-0.094,0.051-0.139
			c0.211-0.592,0.414-1.164,0.609-1.725c0.041-0.117,0.08-0.232,0.121-0.348c0.172-0.498,0.34-0.984,0.498-1.455
			c0.02-0.057,0.039-0.114,0.059-0.17c0.17-0.504,0.33-0.988,0.484-1.459c0.041-0.125,0.082-0.248,0.121-0.37
			c0.133-0.406,0.26-0.802,0.381-1.182c0.02-0.058,0.039-0.118,0.057-0.175c0.133-0.42,0.258-0.817,0.377-1.202
			c0.035-0.114,0.068-0.228,0.104-0.339c0.098-0.315,0.189-0.62,0.277-0.91c0.018-0.062,0.039-0.131,0.057-0.192
			c0.098-0.323,0.186-0.623,0.27-0.911c0.031-0.109,0.062-0.215,0.092-0.318c0.064-0.219,0.123-0.428,0.18-0.624
			c0.025-0.093,0.051-0.185,0.076-0.271c0.055-0.197,0.107-0.382,0.154-0.553c0.021-0.082,0.043-0.161,0.064-0.237
			c0.039-0.145,0.076-0.279,0.107-0.399c0.02-0.069,0.035-0.134,0.053-0.194c0.027-0.104,0.053-0.201,0.072-0.281
			c0.014-0.051,0.025-0.099,0.037-0.141c0.02-0.076,0.039-0.154,0.051-0.198L756.518,315.141z"/>
		<polygon opacity="0.4" points="683.43,390.166 683.484,408.072 683.494,410.99 710.209,421.784 710.145,400.961 		"/>
		<polygon opacity="0.4" points="700.338,365.604 700.346,368.524 703.061,365.053 684.766,357.661 684.77,359.314 		"/>
		<path opacity="0.2" d="M756.518,315.141c-0.008,0.033-0.021,0.081-0.033,0.132c-0.01,0.035-0.021,0.078-0.031,0.122
			c-0.004,0.011-0.006,0.019-0.008,0.03c-0.039,0.149-0.09,0.344-0.154,0.583c-0.037,0.138-0.078,0.289-0.123,0.455
			c-0.002,0.011-0.006,0.021-0.008,0.032c-0.127,0.459-0.285,1.023-0.477,1.687c-0.006,0.019-0.012,0.036-0.018,0.056
			c-0.191,0.665-0.42,1.428-0.682,2.279c-0.01,0.027-0.018,0.053-0.023,0.079c-0.262,0.845-0.557,1.776-0.889,2.788
			c-0.018,0.058-0.037,0.113-0.055,0.172c-0.33,1.007-0.697,2.092-1.098,3.248c-0.025,0.07-0.049,0.141-0.074,0.212
			c-0.363,1.042-0.756,2.14-1.178,3.29c-0.047,0.129-0.096,0.26-0.143,0.389c-0.033,0.088-0.064,0.176-0.098,0.265
			c-0.242,0.65-0.49,1.313-0.752,1.995c-0.01,0.028-0.021,0.057-0.033,0.085c-0.246,0.647-0.504,1.31-0.768,1.982
			c-0.041,0.103-0.08,0.204-0.121,0.307c-0.279,0.706-0.566,1.425-0.865,2.157c-0.021,0.056-0.045,0.111-0.068,0.167
			c-0.275,0.678-0.561,1.368-0.854,2.067c-0.053,0.125-0.105,0.248-0.158,0.374c-0.316,0.754-0.643,1.518-0.98,2.295
			c-0.031,0.071-0.062,0.144-0.094,0.215c-0.311,0.716-0.633,1.442-0.961,2.178c-0.061,0.134-0.119,0.267-0.18,0.4
			c-0.357,0.798-0.727,1.605-1.105,2.423c-0.041,0.09-0.082,0.18-0.123,0.268c-0.352,0.754-0.711,1.515-1.078,2.283
			c-0.062,0.132-0.125,0.264-0.188,0.396c-0.066,0.138-0.131,0.274-0.197,0.412c-0.105,0.218-0.221,0.444-0.328,0.664
			c-0.404,0.831-0.818,1.668-1.242,2.514c-0.186,0.369-0.371,0.738-0.561,1.11c-0.477,0.936-0.965,1.881-1.467,2.833
			c-0.119,0.229-0.234,0.454-0.357,0.684c-0.615,1.159-1.25,2.329-1.902,3.509c-0.186,0.332-0.375,0.666-0.562,1
			c-0.498,0.891-1.008,1.785-1.527,2.685c-0.223,0.384-0.445,0.768-0.672,1.153c-0.621,1.059-1.256,2.121-1.906,3.188
			c-0.102,0.168-0.199,0.334-0.303,0.502c-0.742,1.21-1.512,2.427-2.295,3.646c-0.234,0.367-0.479,0.736-0.719,1.105
			c-0.594,0.912-1.197,1.824-1.814,2.738c-0.256,0.38-0.51,0.759-0.77,1.139c-0.852,1.246-1.717,2.491-2.611,3.737l-13.721,17.791
			l0.064,20.823l13.721-17.79c0.896-1.248,1.762-2.497,2.615-3.743c0.256-0.373,0.504-0.746,0.756-1.117
			c0.625-0.929,1.24-1.855,1.842-2.781c0.23-0.354,0.463-0.708,0.691-1.062c0.789-1.229,1.564-2.457,2.312-3.678
			c0.086-0.139,0.166-0.275,0.25-0.413c0.672-1.1,1.324-2.193,1.963-3.283c0.217-0.369,0.43-0.736,0.645-1.104
			c0.531-0.921,1.053-1.836,1.562-2.747c0.178-0.316,0.359-0.635,0.533-0.949c0.658-1.189,1.301-2.371,1.92-3.539
			c0.109-0.207,0.213-0.409,0.322-0.615c0.512-0.975,1.014-1.941,1.5-2.9c0.186-0.363,0.369-0.726,0.549-1.087
			c0.428-0.853,0.844-1.696,1.252-2.532c0.107-0.222,0.217-0.445,0.324-0.665c0.064-0.133,0.133-0.269,0.195-0.401
			c0.064-0.133,0.127-0.264,0.189-0.396c0.367-0.77,0.729-1.533,1.078-2.288c0.041-0.087,0.082-0.175,0.123-0.261
			c0.381-0.824,0.752-1.637,1.113-2.44c0.055-0.122,0.107-0.241,0.162-0.362c0.334-0.749,0.662-1.49,0.979-2.22
			c0.027-0.062,0.057-0.126,0.082-0.188c0.34-0.783,0.67-1.553,0.99-2.312c0.049-0.117,0.096-0.233,0.145-0.35
			c0.297-0.709,0.586-1.407,0.867-2.094c0.02-0.049,0.041-0.1,0.061-0.149c0.297-0.729,0.582-1.444,0.861-2.147
			c0.045-0.115,0.09-0.23,0.135-0.346c0.258-0.654,0.508-1.299,0.748-1.928c0.018-0.041,0.033-0.085,0.049-0.127
			c0.254-0.664,0.498-1.312,0.734-1.948c0.043-0.12,0.088-0.238,0.131-0.356c0.215-0.58,0.422-1.15,0.621-1.703
			c0.016-0.046,0.033-0.094,0.051-0.139c0.211-0.592,0.414-1.164,0.609-1.725c0.041-0.117,0.08-0.232,0.121-0.348
			c0.172-0.498,0.34-0.984,0.498-1.455c0.02-0.057,0.039-0.114,0.059-0.17c0.17-0.504,0.33-0.988,0.484-1.459
			c0.041-0.125,0.082-0.248,0.121-0.37c0.133-0.406,0.26-0.802,0.381-1.182c0.02-0.058,0.039-0.118,0.057-0.175
			c0.133-0.42,0.258-0.817,0.377-1.202c0.035-0.114,0.068-0.228,0.104-0.339c0.098-0.315,0.189-0.62,0.277-0.91
			c0.018-0.062,0.039-0.131,0.057-0.192c0.098-0.323,0.186-0.623,0.27-0.911c0.031-0.109,0.062-0.215,0.092-0.318
			c0.064-0.219,0.123-0.428,0.18-0.624c0.025-0.093,0.051-0.185,0.076-0.271c0.055-0.197,0.107-0.382,0.154-0.553
			c0.021-0.082,0.043-0.161,0.064-0.237c0.039-0.145,0.076-0.279,0.107-0.399c0.02-0.069,0.035-0.134,0.053-0.194
			c0.027-0.104,0.053-0.201,0.072-0.281c0.014-0.051,0.025-0.099,0.037-0.141c0.02-0.076,0.039-0.154,0.051-0.198L756.518,315.141z"
			/>
	</g>
	<g>
		<polygon fill="#E1B900" points="527.344,355.196 512.008,349 470.199,356.431 467.469,359.924 467.475,361.576 509.186,378.429 
			509.193,381.347 510.174,380.093 510.926,379.132 511.906,377.877 527.354,358.116 		"/>
		<polygon opacity="0.2" points="510.174,380.093 510.926,379.132 511.906,377.877 527.354,358.116 527.344,355.196 
			510.166,377.174 		"/>
		<polygon opacity="0.4" points="509.193,381.347 510.174,380.093 510.166,377.174 467.469,359.924 467.475,361.576 
			509.186,378.429 		"/>
	</g>
	<g>
		<polygon fill="#D827A9" points="509.186,378.429 467.475,361.576 466.488,361.178 456.674,373.735 456.678,375.396 
			498.385,392.246 498.393,395.165 499.379,393.905 500.125,392.949 501.111,391.689 509.193,381.347 		"/>
		<polygon opacity="0.2" points="500.125,392.949 501.111,391.689 509.193,381.347 509.186,378.429 499.369,390.985 
			499.379,393.905 		"/>
		<polygon opacity="0.4" points="498.385,392.246 498.393,395.165 499.379,393.905 499.369,390.985 456.674,373.735 
			456.678,375.396 		"/>
	</g>
	<g>
		<polygon fill="#D827A9" points="498.393,395.165 498.385,392.246 456.678,375.396 455.689,374.995 438.51,396.973 
			438.574,417.797 481.27,435.047 483.004,432.831 482.947,414.927 		"/>
		<polygon opacity="0.2" points="498.393,395.165 498.385,392.246 481.207,414.223 481.27,435.047 483.004,432.831 482.947,414.927 
					"/>
		<polygon opacity="0.4" points="438.51,396.973 438.574,417.797 481.27,435.047 481.207,414.223 		"/>
	</g>
	<g>
		<polygon fill="#55CE15" points="693.621,422.377 529.086,355.9 527.354,358.116 511.906,377.877 510.926,379.132 510.174,380.093 
			509.193,381.347 501.111,391.689 500.125,392.949 499.379,393.905 498.393,395.165 482.947,414.927 483.004,432.831 
			483.012,435.75 500.674,442.887 500.709,454.174 567.801,481.161 593.084,488.098 618.188,489.271 644.238,483.468 
			664.383,473.642 681.105,459.519 693.686,443.202 		"/>
		<polygon opacity="0.4" points="693.621,422.377 681.043,438.694 664.318,452.817 644.174,462.645 618.125,468.448 593.02,467.273 
			567.736,460.337 500.645,433.35 507.342,424.783 482.947,414.927 483.004,432.831 483.012,435.75 500.674,442.887 
			500.709,454.174 567.801,481.161 593.084,488.098 618.188,489.271 644.238,483.468 664.383,473.642 681.105,459.519 
			693.686,443.202 		"/>
	</g>
</g>
</svg>
